<svg width="1910" height="1627" viewBox="0 0 1910 1627" fill="none" xmlns="http://www.w3.org/2000/svg">
<path d="M1062.12 825.262V666.002C1062.12 660.765 1057.11 656.511 1050.96 656.511H863.678C857.53 656.511 852.517 660.765 852.517 666.002V825.262C852.517 830.482 857.53 834.753 863.678 834.753H1050.96C1057.11 834.753 1062.12 830.482 1062.12 825.262ZM858.903 825.262V666.002C858.903 663.765 861.052 661.935 863.678 661.935H1050.96C1053.58 661.935 1055.73 663.765 1055.73 666.002V825.262C1055.73 827.499 1053.58 829.329 1050.96 829.329H863.678C861.052 829.329 858.903 827.499 858.903 825.262Z" fill="#696565"/>
<path d="M844.439 821.11V815.686H812.785L797.863 843.854C797.226 843.769 796.569 843.718 795.893 843.718C788.711 843.718 782.841 848.701 782.841 854.819C782.841 860.937 788.711 865.92 795.893 865.92C803.095 865.92 808.965 860.937 808.965 854.819C808.965 851.192 806.895 847.989 803.732 845.955L816.903 821.11H844.439ZM795.893 860.497C792.212 860.497 789.228 857.954 789.228 854.819C789.228 851.684 792.212 849.141 795.893 849.141C799.594 849.141 802.578 851.684 802.578 854.819C802.578 857.954 799.594 860.497 795.893 860.497Z" fill="#696565"/>
<path d="M912.662 650.529V597.363L856.038 569.789V493.015C861.708 491.812 865.906 487.456 865.906 482.27C865.906 476.135 860.057 471.152 852.855 471.152C845.652 471.152 839.803 476.135 839.803 482.27C839.803 487.456 844.001 491.795 849.671 493.015V572.924L906.275 600.516V650.529H912.662ZM846.17 482.27C846.17 479.135 849.174 476.575 852.855 476.575C856.536 476.575 859.54 479.135 859.54 482.27C859.54 485.388 856.536 487.947 852.855 487.947C849.174 487.947 846.17 485.388 846.17 482.27Z" fill="#696565"/>
<path d="M950.941 650.529V560.095L923.943 544.316C924.44 543.147 924.719 541.893 924.719 540.571C924.719 534.453 918.869 529.47 911.667 529.47C904.465 529.47 898.595 534.453 898.595 540.571C898.595 546.689 904.465 551.672 911.667 551.672C915.009 551.672 918.073 550.587 920.381 548.824L944.555 562.959V650.529H950.941ZM911.667 546.248C907.986 546.248 904.982 543.706 904.982 540.571C904.982 537.435 907.986 534.893 911.667 534.893C915.348 534.893 918.352 537.435 918.352 540.571C918.352 543.706 915.348 546.248 911.667 546.248Z" fill="#696565"/>
<path d="M1021.11 609.311V651.071H1027.48V612.515L1108.3 575.009V542.299C1113.95 541.079 1118.17 536.724 1118.17 531.537C1118.17 526.351 1113.95 521.996 1108.3 520.793V400.022C1113.95 398.818 1118.17 394.463 1118.17 389.277C1118.17 383.158 1112.3 378.176 1105.11 378.176C1097.91 378.176 1092.04 383.158 1092.04 389.277C1092.04 394.463 1096.26 398.818 1101.91 400.022V520.793C1096.26 521.996 1092.04 526.351 1092.04 531.537C1092.04 536.724 1096.26 541.079 1101.91 542.299V571.789L1021.11 609.311ZM1098.43 389.277C1098.43 386.141 1101.43 383.599 1105.11 383.599C1108.79 383.599 1111.78 386.141 1111.78 389.277C1111.78 392.412 1108.79 394.954 1105.11 394.954C1101.43 394.954 1098.43 392.412 1098.43 389.277ZM1098.43 531.537C1098.43 528.402 1101.43 525.86 1105.11 525.86C1108.79 525.86 1111.78 528.402 1111.78 531.537C1111.78 534.673 1108.79 537.215 1105.11 537.215C1101.43 537.215 1098.43 534.673 1098.43 531.537Z" fill="#696565"/>
<path d="M656.881 832.092C655.448 827.279 650.335 823.703 644.247 823.703C637.045 823.703 631.175 828.685 631.175 834.804C631.175 840.922 637.045 845.904 644.247 845.904C650.335 845.904 655.468 842.328 656.881 837.515H733.042L765.472 789.366H844.439V783.943H761.792L729.361 832.092H656.881ZM644.247 840.481C640.566 840.481 637.562 837.939 637.562 834.804C637.562 831.668 640.566 829.126 644.247 829.126C647.928 829.126 650.912 831.668 650.912 834.804C650.912 837.939 647.928 840.481 644.247 840.481Z" fill="#696565"/>
<path d="M845.036 756.809V751.386H681.95L660.263 771.672L594.408 773.655C592.936 768.893 587.842 765.351 581.794 765.351C574.592 765.351 568.722 770.334 568.722 776.452C568.722 782.57 574.592 787.553 581.794 787.553C587.922 787.553 593.055 783.943 594.448 779.079L663.168 777.028L684.775 756.826H713.564L699.358 774.418C697.966 773.994 696.493 773.74 694.942 773.74C687.739 773.74 681.87 778.723 681.87 784.858C681.87 790.976 687.739 795.959 694.942 795.959C702.144 795.959 707.993 790.976 707.993 784.858C707.993 781.994 706.72 779.418 704.631 777.452L721.323 756.826H845.036V756.809ZM581.794 782.129C578.113 782.129 575.109 779.587 575.109 776.452C575.109 773.316 578.113 770.774 581.794 770.774C585.475 770.774 588.459 773.316 588.459 776.452C588.459 779.587 585.475 782.129 581.794 782.129ZM694.942 790.518C691.261 790.518 688.257 787.976 688.257 784.841C688.257 781.723 691.261 779.163 694.942 779.163C698.622 779.163 701.627 781.723 701.627 784.841C701.627 787.976 698.622 790.518 694.942 790.518Z" fill="#696565"/>
<path d="M845.036 735.116H651.947C650.773 729.998 645.48 726.134 639.134 726.134C631.931 726.134 626.082 731.116 626.082 737.234C626.082 743.353 631.931 748.335 639.134 748.335C644.983 748.335 649.937 745.064 651.608 740.539H845.036V735.116ZM639.134 742.912C635.453 742.912 632.449 740.37 632.449 737.234C632.449 734.099 635.453 731.557 639.134 731.557C642.814 731.557 645.819 734.099 645.819 737.234C645.819 740.37 642.814 742.912 639.134 742.912Z" fill="#696565"/>
<path d="M1001.97 842.871V894.155L1058.6 921.746V969.709C1052.93 970.929 1048.73 975.285 1048.73 980.471C1048.73 986.589 1054.58 991.572 1061.78 991.572C1068.98 991.572 1074.83 986.589 1074.83 980.471C1074.83 975.285 1070.63 970.929 1064.96 969.709V918.594L1008.36 891.02V842.871H1001.97ZM1068.47 980.471C1068.47 983.589 1065.46 986.149 1061.78 986.149C1058.1 986.149 1055.1 983.589 1055.1 980.471C1055.1 977.336 1058.1 974.776 1061.78 974.776C1065.46 974.776 1068.47 977.336 1068.47 980.471Z" fill="#696565"/>
<path d="M931.801 980.658V841.803H925.415V979.031L911.07 997.385V1065.38C905.599 1066.7 901.58 1070.97 901.58 1076.04C901.58 1082.18 907.449 1087.16 914.651 1087.16C921.834 1087.16 927.703 1082.18 927.703 1076.04C927.703 1070.75 923.306 1066.3 917.457 1065.21V999.029L931.801 980.658ZM921.316 1076.04C921.316 1079.18 918.332 1081.73 914.631 1081.73C910.951 1081.73 907.966 1079.18 907.966 1076.04C907.966 1072.92 910.951 1070.36 914.631 1070.36C918.332 1070.36 921.316 1072.92 921.316 1076.04Z" fill="#696565"/>
<path d="M1152.37 749.013H1178.35C1179.78 753.826 1184.9 757.402 1190.98 757.402C1198.19 757.402 1204.06 752.437 1204.06 746.301C1204.06 740.183 1198.19 735.201 1190.98 735.201C1184.9 735.201 1179.78 738.777 1178.35 743.59H1154.06L1135.99 734.777H1068.53V740.2H1134.28L1152.37 749.013ZM1190.98 740.624C1194.69 740.624 1197.67 743.183 1197.67 746.301C1197.67 749.437 1194.69 751.979 1190.98 751.979C1187.3 751.979 1184.32 749.437 1184.32 746.301C1184.32 743.183 1187.3 740.624 1190.98 740.624Z" fill="#696565"/>
<path d="M1068.53 756.47H1121.75L1151.65 774.791H1237.9L1287.02 712.609H1339.96C1341.38 717.422 1346.51 720.998 1352.6 720.998C1359.8 720.998 1365.67 716.015 1365.67 709.897C1365.67 703.779 1359.8 698.796 1352.6 698.796C1346.51 698.796 1341.38 702.372 1339.96 707.186H1283.62L1234.5 769.368H1153.72L1123.82 751.047H1068.53V756.47ZM1352.6 704.22C1356.28 704.22 1359.28 706.762 1359.28 709.897C1359.28 713.033 1356.28 715.575 1352.6 715.575C1348.92 715.575 1345.93 713.033 1345.93 709.897C1345.93 706.762 1348.92 704.22 1352.6 704.22Z" fill="#696565"/>
<path d="M1068.53 821.567H1102.93L1120.39 833.346V855.175C1114.72 856.378 1110.53 860.734 1110.53 865.92C1110.53 872.038 1116.38 877.021 1123.58 877.021C1130.78 877.021 1136.63 872.038 1136.63 865.92C1136.63 860.734 1132.43 856.378 1126.76 855.175V830.719L1105.15 816.144H1068.53V821.567ZM1130.26 865.92C1130.26 869.055 1127.26 871.597 1123.58 871.597C1119.9 871.597 1116.89 869.055 1116.89 865.92C1116.89 862.784 1119.9 860.242 1123.58 860.242C1127.26 860.242 1130.26 862.784 1130.26 865.92Z" fill="#696565"/>
<path d="M768.855 520.318V580.5L868.015 625.87V650.529H874.382V622.633L800.35 588.754V460.78C806.02 459.56 810.218 455.221 810.218 450.035C810.218 443.9 804.369 438.917 797.166 438.917C789.964 438.917 784.095 443.9 784.095 450.035C784.095 455.221 788.313 459.56 793.983 460.78V585.839L775.221 577.263V520.318C780.892 519.115 785.09 514.759 785.09 509.573C785.09 503.438 779.24 498.455 772.038 498.455C764.836 498.455 758.986 503.438 758.986 509.573C758.986 514.759 763.184 519.115 768.855 520.318ZM790.481 450.035C790.481 446.9 793.486 444.341 797.166 444.341C800.847 444.341 803.851 446.9 803.851 450.035C803.851 453.153 800.847 455.713 797.166 455.713C793.486 455.713 790.481 453.153 790.481 450.035ZM772.038 503.896C775.719 503.896 778.723 506.438 778.723 509.573C778.723 512.692 775.719 515.251 772.038 515.251C768.357 515.251 765.353 512.692 765.353 509.573C765.353 506.438 768.357 503.896 772.038 503.896Z" fill="#696565"/>
<path d="M823.349 440.748V582.415L887.135 613.616V650.529H893.522V610.481L829.736 579.28V440.748C835.386 439.527 839.604 435.172 839.604 429.986C839.604 423.867 833.735 418.885 826.533 418.885C819.35 418.885 813.481 423.867 813.481 429.986C813.481 435.172 817.699 439.527 823.349 440.748ZM826.533 424.308C830.233 424.308 833.218 426.85 833.218 429.986C833.218 433.121 830.233 435.663 826.533 435.663C822.852 435.663 819.868 433.121 819.868 429.986C819.868 426.85 822.852 424.308 826.533 424.308Z" fill="#696565"/>
<path d="M670.171 457.543L671.564 522.047L721.522 550.417V579.619C715.852 580.839 711.654 585.195 711.654 590.381C711.654 596.499 717.503 601.482 724.706 601.482C731.908 601.482 737.757 596.499 737.757 590.381C737.757 585.195 733.559 580.839 727.889 579.619V511.878C733.44 510.59 737.539 506.285 737.539 501.167C737.539 495.049 731.669 490.066 724.467 490.066C717.265 490.066 711.415 495.049 711.415 501.167C711.415 506.438 715.733 510.844 721.522 511.98V543.893L677.891 519.115L676.558 457.509C682.168 456.255 686.327 451.933 686.327 446.764C686.327 440.646 680.477 435.663 673.275 435.663C666.073 435.663 660.223 440.646 660.223 446.764C660.223 451.984 664.481 456.356 670.171 457.543ZM731.391 590.381C731.391 593.499 728.386 596.058 724.706 596.058C721.025 596.058 718.021 593.499 718.021 590.381C718.021 587.245 721.025 584.703 724.706 584.703C728.386 584.703 731.391 587.245 731.391 590.381ZM717.802 501.167C717.802 498.048 720.786 495.489 724.467 495.489C728.148 495.489 731.152 498.048 731.152 501.167C731.152 504.302 728.148 506.861 724.467 506.861C720.786 506.861 717.802 504.302 717.802 501.167ZM673.275 441.086C676.956 441.086 679.96 443.646 679.96 446.764C679.96 449.899 676.956 452.458 673.275 452.458C669.594 452.458 666.59 449.899 666.59 446.764C666.59 443.646 669.594 441.086 673.275 441.086Z" fill="#696565"/>
<path d="M963.694 489.913V514.928L938.188 497.489V419.834C943.998 418.732 948.375 414.292 948.375 409.021C948.375 402.886 942.525 397.903 935.323 397.903C928.121 397.903 922.251 402.886 922.251 409.021C922.251 414.105 926.31 418.393 931.801 419.698V500.099L963.694 521.877V650.529H970.081V489.913C975.731 488.71 979.949 484.354 979.949 479.168C979.949 473.033 974.08 468.067 966.878 468.067C959.676 468.067 953.826 473.033 953.826 479.168C953.826 484.354 958.044 488.71 963.694 489.913ZM928.638 409.021C928.638 405.886 931.642 403.326 935.323 403.326C939.004 403.326 941.988 405.886 941.988 409.021C941.988 412.139 939.004 414.698 935.323 414.698C931.642 414.698 928.638 412.139 928.638 409.021ZM966.878 473.491C970.578 473.491 973.563 476.033 973.563 479.168C973.563 482.304 970.578 484.846 966.878 484.846C963.197 484.846 960.213 482.304 960.213 479.168C960.213 476.033 963.197 473.491 966.878 473.491Z" fill="#696565"/>
<path d="M969.385 369.058V431.308L1009.95 458.424V485.236L982.834 503.59V650.529H989.221V506.217L1016.32 487.846V428.155C1021.99 426.952 1026.19 422.596 1026.19 417.41C1026.19 411.275 1020.34 406.292 1013.14 406.292C1005.93 406.292 1000.08 411.275 1000.08 417.41C1000.08 422.596 1004.28 426.952 1009.95 428.155V451.526L975.771 428.664V369.058C981.422 367.855 985.64 363.499 985.64 358.313C985.64 352.178 979.77 347.195 972.568 347.195C965.366 347.195 959.516 352.178 959.516 358.313C959.516 363.499 963.714 367.855 969.385 369.058ZM1006.45 417.41C1006.45 414.275 1009.45 411.733 1013.14 411.733C1016.82 411.733 1019.82 414.275 1019.82 417.41C1019.82 420.546 1016.82 423.088 1013.14 423.088C1009.45 423.088 1006.45 420.529 1006.45 417.41ZM972.568 352.635C976.249 352.635 979.253 355.178 979.253 358.313C979.253 361.448 976.249 363.99 972.568 363.99C968.887 363.99 965.883 361.448 965.883 358.313C965.883 355.178 968.887 352.635 972.568 352.635Z" fill="#696565"/>
<path d="M839.803 297.436V387.548L877.983 410.428V562.501L925.415 586.466V650.529H931.801V583.381L884.35 559.417V515.539L910.374 502.743V373.905L941.71 362.414L941.391 290.148C947.201 289.03 951.558 284.606 951.558 279.336C951.558 273.2 945.709 268.218 938.506 268.218C931.304 268.218 925.455 273.2 925.455 279.336C925.455 284.42 929.494 288.708 935.005 290.013L935.303 358.855L910.374 368.007V330.637C916.024 329.417 920.242 325.061 920.242 319.875C920.242 313.757 914.393 308.774 907.19 308.774C899.988 308.774 894.119 313.757 894.119 319.875C894.119 325.061 898.337 329.417 903.987 330.637V499.608L884.35 509.268V379.786C890.02 378.566 894.218 374.21 894.218 369.024C894.218 362.906 888.369 357.923 881.167 357.923C873.964 357.923 868.115 362.906 868.115 369.024C868.115 374.21 872.313 378.566 877.983 379.786V403.784L846.17 384.735V297.436C851.84 296.233 856.038 291.877 856.038 286.691C856.038 280.556 850.189 275.573 842.986 275.573C835.784 275.573 829.935 280.556 829.935 286.691C829.935 291.877 834.133 296.216 839.803 297.436ZM931.821 279.336C931.821 276.2 934.826 273.658 938.506 273.658C942.187 273.658 945.191 276.2 945.191 279.336C945.191 282.454 942.187 285.013 938.506 285.013C934.826 285.013 931.821 282.454 931.821 279.336ZM900.505 319.875C900.505 316.757 903.51 314.197 907.19 314.197C910.871 314.197 913.855 316.757 913.855 319.875C913.855 323.01 910.871 325.57 907.19 325.57C903.51 325.57 900.505 323.01 900.505 319.875ZM874.482 369.024C874.482 365.906 877.486 363.346 881.167 363.346C884.847 363.346 887.852 365.906 887.852 369.024C887.852 372.159 884.847 374.718 881.167 374.718C877.486 374.718 874.482 372.159 874.482 369.024ZM842.986 280.997C846.667 280.997 849.671 283.556 849.671 286.691C849.671 289.809 846.667 292.369 842.986 292.369C839.306 292.369 836.301 289.809 836.301 286.691C836.301 283.556 839.306 280.997 842.986 280.997Z" fill="#696565"/>
<path d="M1139.41 451.137V575.958L1040.25 621.328V650.529H1046.62V624.565L1145.8 579.195V451.12C1151.45 449.916 1155.67 445.561 1155.67 440.375C1155.67 434.24 1149.8 429.274 1142.6 429.274C1135.4 429.274 1129.55 434.24 1129.55 440.375C1129.55 445.561 1133.74 449.916 1139.41 451.137ZM1142.6 434.697C1146.28 434.697 1149.28 437.239 1149.28 440.375C1149.28 443.51 1146.28 446.052 1142.6 446.052C1138.92 446.052 1135.91 443.51 1135.91 440.375C1135.93 437.239 1138.92 434.697 1142.6 434.697Z" fill="#696565"/>
<path d="M1339.83 892.765C1333.74 892.765 1328.6 896.341 1327.17 901.155H1274.79L1248.48 884.393H1183.9C1182.47 879.58 1177.36 876.004 1171.25 876.004C1164.07 876.004 1158.2 880.987 1158.2 887.105C1158.2 893.223 1164.07 898.206 1171.25 898.206C1177.36 898.206 1182.47 894.63 1183.9 889.816H1246.35L1272.66 906.578H1327.17C1328.6 911.391 1333.74 914.967 1339.83 914.967C1347.03 914.967 1352.88 909.984 1352.88 903.866C1352.88 897.748 1347.03 892.765 1339.83 892.765ZM1171.25 892.782C1167.57 892.782 1164.58 890.24 1164.58 887.105C1164.58 883.969 1167.57 881.427 1171.25 881.427C1174.95 881.427 1177.93 883.969 1177.93 887.105C1177.93 890.24 1174.95 892.782 1171.25 892.782ZM1339.83 909.544C1336.14 909.544 1333.14 907.002 1333.14 903.866C1333.14 900.731 1336.14 898.189 1339.83 898.189C1343.51 898.189 1346.51 900.731 1346.51 903.866C1346.51 907.002 1343.51 909.544 1339.83 909.544Z" fill="#696565"/>
<path d="M1181.12 838.04C1178.43 838.04 1175.9 838.735 1173.81 839.939L1108.54 799.874H1068.53V805.297H1106.47L1169.56 844.006C1168.6 845.548 1168.06 847.294 1168.06 849.141C1168.06 855.26 1173.93 860.242 1181.14 860.242C1184.48 860.242 1187.54 859.158 1189.85 857.378L1211.5 867.123L1279.78 868.581C1281.17 873.411 1286.31 877.021 1292.43 877.021C1299.64 877.021 1305.49 872.038 1305.49 865.92C1305.49 859.802 1299.64 854.819 1292.43 854.819C1286.37 854.819 1281.25 858.361 1279.8 863.157L1213.15 861.734L1193.41 852.853C1193.91 851.684 1194.19 850.446 1194.19 849.141C1194.19 843.023 1188.32 838.04 1181.12 838.04ZM1292.43 860.242C1296.11 860.242 1299.12 862.784 1299.12 865.92C1299.12 869.055 1296.11 871.597 1292.43 871.597C1288.75 871.597 1285.75 869.055 1285.75 865.92C1285.75 862.784 1288.75 860.242 1292.43 860.242ZM1181.12 854.819C1177.44 854.819 1174.45 852.277 1174.45 849.141C1174.45 846.006 1177.44 843.464 1181.12 843.464C1184.82 843.464 1187.8 846.006 1187.8 849.141C1187.8 852.277 1184.82 854.819 1181.12 854.819Z" fill="#696565"/>
<path d="M982.516 1003.86C982.516 1009.99 988.365 1014.98 995.568 1014.98C1002.77 1014.98 1008.62 1009.99 1008.62 1003.86C1008.62 998.673 1004.42 994.334 998.751 993.114V945.338L970.081 928.576V842.362H963.695V931.424L992.384 948.202V965.692L966.898 982.013V1041.4L992.384 1051.4V1088.29C986.714 1089.5 982.516 1093.85 982.516 1099.04C982.516 1105.17 988.365 1110.16 995.568 1110.16C1002.77 1110.16 1008.62 1105.17 1008.62 1099.04C1008.62 1093.85 1004.42 1089.51 998.751 1088.29V1047.92L973.264 1037.92V984.725L992.384 972.488V993.114C986.714 994.334 982.516 998.673 982.516 1003.86ZM1002.25 1099.04C1002.25 1102.17 999.248 1104.73 995.568 1104.73C991.887 1104.73 988.883 1102.17 988.883 1099.04C988.883 1095.92 991.887 1093.36 995.568 1093.36C999.248 1093.36 1002.25 1095.92 1002.25 1099.04ZM1002.25 1003.86C1002.25 1006.99 999.248 1009.55 995.568 1009.55C991.887 1009.55 988.883 1006.99 988.883 1003.86C988.883 1000.74 991.887 998.181 995.568 998.181C999.248 998.181 1002.25 1000.74 1002.25 1003.86Z" fill="#696565"/>
<path d="M812.725 997.741V919.747L893.522 882.224V841.803H887.135V879.004L806.338 916.527V997.741C800.688 998.961 796.47 1003.3 796.47 1008.49C796.47 1014.62 802.319 1019.6 809.522 1019.6C816.724 1019.6 822.593 1014.62 822.593 1008.49C822.593 1003.3 818.375 998.944 812.725 997.741ZM809.522 1014.16C805.841 1014.16 802.857 1011.62 802.857 1008.49C802.857 1005.37 805.841 1002.81 809.522 1002.81C813.202 1002.81 816.207 1005.37 816.207 1008.49C816.207 1011.62 813.202 1014.16 809.522 1014.16Z" fill="#696565"/>
<path d="M810.437 1117V1055.65L775.221 1033.04V915.577L874.382 870.208V841.803H868.015V866.954L768.855 912.324V961.133L733.878 972.878V1009.44C728.227 1010.64 724.009 1014.99 724.009 1020.18C724.009 1026.32 729.859 1031.3 737.061 1031.3C744.263 1031.3 750.133 1026.32 750.133 1020.18C750.133 1014.99 745.915 1010.66 740.264 1009.44V976.573L768.855 966.964V1063.5C763.184 1064.72 758.966 1069.06 758.966 1074.24C758.966 1080.38 764.836 1085.36 772.038 1085.36C779.24 1085.36 785.09 1080.38 785.09 1074.24C785.09 1069.07 780.892 1064.72 775.221 1063.5V1039.84L804.05 1058.35V1117C798.4 1118.21 794.182 1122.56 794.182 1127.75C794.182 1133.88 800.031 1138.87 807.234 1138.87C814.436 1138.87 820.305 1133.88 820.305 1127.75C820.305 1122.58 816.087 1118.22 810.437 1117ZM743.746 1020.18C743.746 1023.32 740.742 1025.87 737.061 1025.87C733.38 1025.87 730.396 1023.32 730.396 1020.18C730.396 1017.06 733.38 1014.5 737.061 1014.5C740.742 1014.5 743.746 1017.06 743.746 1020.18ZM778.703 1074.24C778.703 1077.38 775.719 1079.94 772.038 1079.94C768.357 1079.94 765.353 1077.38 765.353 1074.24C765.353 1071.13 768.357 1068.57 772.038 1068.57C775.719 1068.57 778.703 1071.13 778.703 1074.24ZM807.234 1133.43C803.553 1133.43 800.569 1130.88 800.569 1127.75C800.569 1124.63 803.553 1122.07 807.234 1122.07C810.914 1122.07 813.919 1124.63 813.919 1127.75C813.919 1130.88 810.914 1133.43 807.234 1133.43Z" fill="#696565"/>
<path d="M700.91 1042.38V962.049L740.264 947.575V903.765C745.915 902.562 750.133 898.206 750.133 893.02C750.133 886.885 744.263 881.919 737.061 881.919C729.859 881.919 724.009 886.902 724.009 893.02C724.009 898.206 728.227 902.562 733.878 903.765V944.016L694.544 958.473V1042.38C688.873 1043.59 684.675 1047.94 684.675 1053.13C684.675 1059.26 690.525 1064.24 697.727 1064.24C704.929 1064.24 710.779 1059.26 710.779 1053.13C710.779 1047.94 706.581 1043.59 700.91 1042.38ZM730.396 893.02C730.396 889.884 733.38 887.342 737.061 887.342C740.742 887.342 743.746 889.884 743.746 893.02C743.746 896.155 740.742 898.697 737.061 898.697C733.38 898.697 730.396 896.155 730.396 893.02ZM697.727 1058.8C694.046 1058.8 691.042 1056.26 691.042 1053.13C691.042 1050.01 694.046 1047.45 697.727 1047.45C701.408 1047.45 704.412 1050.01 704.412 1053.13C704.412 1056.26 701.408 1058.8 697.727 1058.8Z" fill="#696565"/>
<path d="M1126.76 1096.68V1025.18L1091.29 1006.96V917.238L1027.48 886.054V842.871H1021.11V889.19L1084.9 920.374V1050.55C1079.25 1051.75 1075.03 1056.11 1075.03 1061.3C1075.03 1067.41 1080.9 1072.4 1088.1 1072.4C1095.29 1072.4 1101.15 1067.41 1101.15 1061.3C1101.15 1056.11 1096.94 1051.75 1091.29 1050.55V1013.3L1120.39 1028.25V1096.68C1114.72 1097.9 1110.53 1102.24 1110.53 1107.43C1110.53 1113.56 1116.37 1118.55 1123.58 1118.55C1130.78 1118.55 1136.63 1113.56 1136.63 1107.43C1136.63 1102.26 1132.43 1097.9 1126.76 1096.68ZM1094.77 1061.3C1094.77 1064.43 1091.78 1066.97 1088.1 1066.97C1084.4 1066.97 1081.42 1064.43 1081.42 1061.3C1081.42 1058.16 1084.4 1055.62 1088.1 1055.62C1091.78 1055.62 1094.77 1058.16 1094.77 1061.3ZM1123.58 1113.12C1119.9 1113.12 1116.89 1110.56 1116.89 1107.43C1116.89 1104.31 1119.9 1101.75 1123.58 1101.75C1127.26 1101.75 1130.26 1104.31 1130.26 1107.43C1130.26 1110.56 1127.26 1113.12 1123.58 1113.12Z" fill="#696565"/>
<path d="M1085.28 1159.41V1097.78L1064.96 1083.18V1027.72L1036.65 1015.23V929.017L989.221 905.07V842.362H982.834V908.154L1030.29 932.102V1110.43C1024.62 1111.65 1020.42 1116 1020.42 1121.19C1020.42 1127.31 1026.27 1132.29 1033.47 1132.29C1040.67 1132.29 1046.52 1127.31 1046.52 1121.19C1046.52 1116 1042.32 1111.65 1036.65 1110.43V1021.35L1058.6 1031.03V1085.7L1078.89 1100.31V1159.41C1073.24 1160.63 1069.02 1164.97 1069.02 1170.15C1069.02 1176.29 1074.89 1181.27 1082.07 1181.27C1089.28 1181.27 1095.15 1176.29 1095.15 1170.15C1095.15 1164.97 1090.93 1160.63 1085.28 1159.41ZM1040.15 1121.19C1040.15 1124.32 1037.15 1126.87 1033.47 1126.87C1029.79 1126.87 1026.78 1124.32 1026.78 1121.19C1026.78 1118.05 1029.79 1115.51 1033.47 1115.51C1037.15 1115.51 1040.15 1118.05 1040.15 1121.19ZM1082.07 1175.85C1078.39 1175.85 1075.41 1173.29 1075.41 1170.15C1075.41 1167.03 1078.39 1164.47 1082.07 1164.47C1085.78 1164.47 1088.76 1167.03 1088.76 1170.15C1088.76 1173.29 1085.76 1175.85 1082.07 1175.85Z" fill="#696565"/>
<mask id="mask0_70_351" style="mask-type:luminance" maskUnits="userSpaceOnUse" x="896" y="841" width="67" height="366">
<path d="M896.427 841.701H962.64V1206.42H896.427V841.701Z" fill="white"/>
</mask>
<g mask="url(#mask0_70_351)">
<path d="M950.941 1146.37V841.803H944.555V1088.19L911.07 1115.66V1184.39C905.4 1185.59 901.202 1189.95 901.202 1195.13C901.202 1201.27 907.051 1206.23 914.253 1206.23C921.456 1206.23 927.325 1201.27 927.325 1195.13C927.325 1189.95 923.107 1185.59 917.457 1184.39V1117.97L944.555 1095.73V1146.37C938.904 1147.59 934.686 1151.95 934.686 1157.14C934.686 1163.25 940.556 1168.24 947.758 1168.24C954.94 1168.24 960.81 1163.25 960.81 1157.14C960.81 1151.95 956.592 1147.59 950.941 1146.37ZM920.938 1195.13C920.938 1198.27 917.934 1200.81 914.253 1200.81C910.573 1200.81 907.568 1198.27 907.568 1195.13C907.568 1192 910.573 1189.46 914.253 1189.46C917.934 1189.46 920.938 1192 920.938 1195.13ZM947.758 1162.81C944.057 1162.81 941.073 1160.27 941.073 1157.14C941.073 1154 944.057 1151.46 947.758 1151.46C951.439 1151.46 954.423 1154 954.423 1157.14C954.423 1160.27 951.439 1162.81 947.758 1162.81Z" fill="#696565"/>
</g>
<path d="M1215.52 1064.72V1008.98L1172.62 990.691V959.184L1133.7 941.898V911.629L1166.89 926.78C1166.47 927.882 1166.23 929.034 1166.23 930.237C1166.23 936.356 1172.08 941.338 1179.29 941.338C1186.49 941.338 1192.36 936.356 1192.36 930.237C1192.36 924.102 1186.49 919.136 1179.29 919.136C1175.8 919.136 1172.66 920.306 1170.31 922.187L1046.62 865.649V842.871H1040.25V868.903L1127.34 908.714V964.218C1121.67 965.438 1117.47 969.794 1117.47 974.98C1117.47 981.098 1123.32 986.081 1130.52 986.081C1137.72 986.081 1143.57 981.098 1143.57 974.98C1143.57 969.794 1139.37 965.438 1133.7 964.218V948.016L1166.23 962.472V1031.37C1160.56 1032.57 1156.37 1036.92 1156.37 1042.11C1156.37 1048.23 1162.22 1053.21 1169.42 1053.21C1176.62 1053.21 1182.49 1048.23 1182.49 1042.11C1182.49 1036.92 1178.27 1032.57 1172.62 1031.37V996.758L1209.13 1012.32V1064.72C1203.48 1065.92 1199.26 1070.28 1199.26 1075.46C1199.26 1081.6 1205.13 1086.58 1212.33 1086.58C1219.54 1086.58 1225.38 1081.6 1225.38 1075.46C1225.38 1070.28 1221.19 1065.92 1215.52 1064.72ZM1179.29 924.56C1182.97 924.56 1185.97 927.102 1185.97 930.237C1185.97 933.373 1182.97 935.915 1179.29 935.915C1175.61 935.915 1172.6 933.373 1172.6 930.237C1172.6 927.102 1175.61 924.56 1179.29 924.56ZM1137.21 974.98C1137.21 978.115 1134.2 980.657 1130.52 980.657C1126.84 980.657 1123.84 978.115 1123.84 974.98C1123.84 971.844 1126.84 969.302 1130.52 969.302C1134.2 969.302 1137.21 971.844 1137.21 974.98ZM1176.1 1042.11C1176.1 1045.25 1173.1 1047.79 1169.42 1047.79C1165.74 1047.79 1162.73 1045.25 1162.73 1042.11C1162.73 1038.98 1165.74 1036.43 1169.42 1036.43C1173.1 1036.43 1176.1 1038.98 1176.1 1042.11ZM1212.33 1081.14C1208.65 1081.14 1205.65 1078.6 1205.65 1075.46C1205.65 1072.35 1208.65 1069.79 1212.33 1069.79C1216.01 1069.79 1219 1072.35 1219 1075.46C1219 1078.6 1216.01 1081.14 1212.33 1081.14Z" fill="#696565"/>
<path d="M1221.9 523.419V592.55L1197.13 614.396L1197.07 573.416C1202.82 572.246 1207.1 567.857 1207.1 562.62C1207.1 556.502 1201.25 551.519 1194.05 551.519C1186.85 551.519 1181 556.502 1181 562.62C1181 567.772 1185.12 572.094 1190.71 573.348L1190.87 685.95H1068.53V691.373H1197.25L1197.15 622.209L1228.27 594.736V523.419C1233.94 522.216 1238.14 517.861 1238.14 512.674C1238.14 506.539 1232.29 501.557 1225.09 501.557C1217.88 501.557 1212.03 506.539 1212.03 512.674C1212.03 517.861 1216.23 522.216 1221.9 523.419ZM1187.36 562.62C1187.36 559.502 1190.37 556.942 1194.05 556.942C1197.73 556.942 1200.73 559.502 1200.73 562.62C1200.73 565.755 1197.73 568.314 1194.05 568.314C1190.37 568.314 1187.36 565.755 1187.36 562.62ZM1225.09 506.997C1228.77 506.997 1231.77 509.539 1231.77 512.674C1231.77 515.81 1228.77 518.352 1225.09 518.352C1221.41 518.352 1218.4 515.81 1218.4 512.674C1218.4 509.539 1221.41 506.997 1225.09 506.997Z" fill="#696565"/>
<path d="M1254.59 474.711V539.452L1283.24 558.061V595.499C1277.59 596.719 1273.37 601.058 1273.37 606.244C1273.37 609.193 1274.75 611.871 1276.95 613.871L1210.58 702.237H1068.53V707.66H1214.06L1267.19 636.937H1410.83L1429.58 659.41H1491.81C1493.24 664.223 1498.36 667.799 1504.44 667.799C1511.65 667.799 1517.51 662.816 1517.51 656.698C1517.51 650.58 1511.65 645.597 1504.44 645.597C1498.36 645.597 1493.24 649.173 1491.81 653.986H1432.86L1414.14 631.513H1354.01L1368.14 608.956H1435.23C1436.66 613.769 1441.77 617.362 1447.86 617.362C1455.06 617.362 1460.93 612.379 1460.93 606.244C1460.93 600.126 1455.06 595.143 1447.86 595.143C1441.77 595.143 1436.66 598.719 1435.23 603.532H1401.8L1418.08 579.619H1499.27C1500.7 584.432 1505.84 588.008 1511.92 588.008C1519.13 588.008 1524.98 583.025 1524.98 576.907C1524.98 570.789 1519.13 565.806 1511.92 565.806C1505.84 565.806 1500.7 569.382 1499.27 574.195H1414.39L1394.42 603.532H1364.32L1346.77 631.513H1271.26L1282.33 616.786C1283.62 617.158 1284.99 617.362 1286.42 617.362C1293.63 617.362 1299.5 612.379 1299.5 606.244C1299.5 601.058 1295.28 596.702 1289.63 595.499V577.704L1324.76 559.214V474.711C1330.41 473.491 1334.63 469.152 1334.63 463.949C1334.63 457.831 1328.76 452.848 1321.58 452.848C1314.38 452.848 1308.51 457.831 1308.51 463.949C1308.51 469.135 1312.73 473.491 1318.38 474.711V556.18L1289.63 571.314V525.504C1295.28 524.301 1299.5 519.945 1299.5 514.759C1299.5 508.624 1293.63 503.658 1286.42 503.658C1279.22 503.658 1273.37 508.624 1273.37 514.759C1273.37 519.945 1277.57 524.301 1283.24 525.504V551.248L1260.98 536.774V474.711C1266.63 473.491 1270.85 469.152 1270.85 463.949C1270.85 457.831 1264.98 452.848 1257.77 452.848C1250.57 452.848 1244.72 457.831 1244.72 463.949C1244.72 469.152 1248.92 473.491 1254.59 474.711ZM1504.44 651.02C1508.12 651.02 1511.13 653.563 1511.13 656.698C1511.13 659.833 1508.12 662.375 1504.44 662.375C1500.76 662.375 1497.78 659.833 1497.78 656.698C1497.78 653.563 1500.76 651.02 1504.44 651.02ZM1447.86 600.566C1451.54 600.566 1454.54 603.126 1454.54 606.244C1454.54 609.379 1451.54 611.922 1447.86 611.922C1444.18 611.922 1441.17 609.379 1441.17 606.244C1441.19 603.126 1444.18 600.566 1447.86 600.566ZM1511.92 571.23C1515.6 571.23 1518.61 573.772 1518.61 576.907C1518.61 580.043 1515.6 582.585 1511.92 582.585C1508.24 582.585 1505.24 580.043 1505.24 576.907C1505.24 573.772 1508.24 571.23 1511.92 571.23ZM1314.9 463.966C1314.9 460.831 1317.9 458.272 1321.58 458.272C1325.26 458.272 1328.25 460.831 1328.25 463.966C1328.25 467.085 1325.26 469.644 1321.58 469.644C1317.9 469.644 1314.9 467.085 1314.9 463.966ZM1293.11 606.244C1293.11 609.379 1290.11 611.922 1286.42 611.922C1282.74 611.922 1279.76 609.379 1279.76 606.244C1279.76 603.126 1282.74 600.566 1286.42 600.566C1290.11 600.566 1293.11 603.126 1293.11 606.244ZM1279.76 514.759C1279.76 511.624 1282.74 509.082 1286.42 509.082C1290.11 509.082 1293.11 511.624 1293.11 514.759C1293.11 517.895 1290.11 520.437 1286.42 520.437C1282.74 520.437 1279.76 517.895 1279.76 514.759ZM1257.77 458.272C1261.46 458.272 1264.46 460.831 1264.46 463.966C1264.46 467.085 1261.46 469.644 1257.77 469.644C1254.09 469.644 1251.11 467.085 1251.11 463.966C1251.11 460.831 1254.09 458.272 1257.77 458.272Z" fill="#696565"/>
<path d="M1519.09 685.95H1456.59L1440.64 707.186H1401.36L1383.97 686.306H1403.59C1405.02 691.119 1410.14 694.695 1416.25 694.695C1423.43 694.695 1429.3 689.712 1429.3 683.594C1429.3 677.476 1423.43 672.493 1416.25 672.493C1410.14 672.493 1405.02 676.069 1403.59 680.883H1339.92L1325.5 664.206H1366.74C1368.18 669.019 1373.29 672.595 1379.4 672.595C1386.6 672.595 1392.45 667.612 1392.45 661.494C1392.45 655.376 1386.6 650.393 1379.4 650.393C1373.29 650.393 1368.18 653.969 1366.74 658.783H1280.95L1234.14 718.507H1068.53V723.93H1237.56L1284.38 664.206H1317.56L1336.7 686.306H1376.14L1398.06 712.609H1444.12L1460.08 691.373H1518.95C1520.28 696.305 1525.47 700 1531.66 700C1538.86 700 1544.71 695.017 1544.71 688.899C1544.71 682.781 1538.86 677.798 1531.66 677.798C1525.65 677.798 1520.6 681.255 1519.09 685.95ZM1416.23 677.917C1419.91 677.917 1422.91 680.459 1422.91 683.594C1422.91 686.73 1419.91 689.272 1416.23 689.272C1412.54 689.272 1409.56 686.73 1409.56 683.594C1409.56 680.459 1412.54 677.917 1416.23 677.917ZM1379.4 655.817C1383.08 655.817 1386.06 658.376 1386.06 661.494C1386.06 664.63 1383.08 667.172 1379.4 667.172C1375.72 667.172 1372.71 664.63 1372.71 661.494C1372.71 658.359 1375.72 655.817 1379.4 655.817ZM1531.66 683.221C1535.34 683.221 1538.35 685.764 1538.35 688.899C1538.35 692.034 1535.34 694.577 1531.66 694.577C1527.98 694.577 1524.98 692.034 1524.98 688.899C1524.98 685.764 1527.98 683.221 1531.66 683.221Z" fill="#696565"/>
<mask id="mask1_70_351" style="mask-type:luminance" maskUnits="userSpaceOnUse" x="1064" y="707" width="493" height="83">
<path d="M1064.51 707.203H1556.87V789.637H1064.51V707.203Z" fill="white"/>
</mask>
<g mask="url(#mask1_70_351)">
<path d="M1543.82 710.118C1537.73 710.118 1532.6 713.694 1531.16 718.507H1474.06L1445.35 745.624H1398.88L1373.75 775.774H1337.48L1314.58 751.047H1339.96C1341.38 755.86 1346.51 759.453 1352.6 759.453C1359.8 759.453 1365.67 754.47 1365.67 748.335C1365.67 742.217 1359.8 737.234 1352.6 737.234C1346.51 737.234 1341.38 740.81 1339.96 745.624H1278.01L1246.71 783.604H1146.16L1119.98 767.334L1068.55 767.147L1068.51 772.571L1117.87 772.757L1144.07 789.027H1250.04L1281.33 751.047H1306.46L1334.37 781.197H1403.59C1405.02 786.01 1410.14 789.603 1416.23 789.603C1423.43 789.603 1429.3 784.621 1429.3 778.486C1429.3 772.367 1423.43 767.385 1416.23 767.385C1410.14 767.385 1405.02 770.961 1403.59 775.774H1381.57L1402.16 751.047H1499.27C1500.7 755.86 1505.82 759.453 1511.92 759.453C1519.13 759.453 1524.98 754.47 1524.98 748.335C1524.98 742.217 1519.13 737.234 1511.92 737.234C1505.84 737.234 1500.7 740.81 1499.27 745.624H1453.93L1476.89 723.93H1531.16C1532.6 728.743 1537.73 732.319 1543.82 732.319C1551.02 732.319 1556.87 727.337 1556.87 721.219C1556.87 715.1 1551.02 710.118 1543.82 710.118ZM1352.6 742.658C1356.28 742.658 1359.28 745.217 1359.28 748.335C1359.28 751.471 1356.28 754.013 1352.6 754.013C1348.92 754.013 1345.93 751.471 1345.93 748.335C1345.93 745.217 1348.92 742.658 1352.6 742.658ZM1416.23 772.808C1419.91 772.808 1422.91 775.367 1422.91 778.486C1422.91 781.621 1419.91 784.18 1416.23 784.18C1412.54 784.18 1409.56 781.621 1409.56 778.486C1409.56 775.367 1412.54 772.808 1416.23 772.808ZM1511.92 742.658C1515.6 742.658 1518.61 745.217 1518.61 748.335C1518.61 751.471 1515.6 754.013 1511.92 754.013C1508.24 754.013 1505.24 751.471 1505.24 748.335C1505.24 745.217 1508.24 742.658 1511.92 742.658ZM1543.82 726.896C1540.14 726.896 1537.13 724.354 1537.13 721.219C1537.13 718.083 1540.14 715.541 1543.82 715.541C1547.5 715.541 1550.5 718.083 1550.5 721.219C1550.5 724.354 1547.5 726.896 1543.82 726.896Z" fill="#696565"/>
</g>
<path d="M1464.55 791.485C1458.44 791.485 1453.33 795.061 1451.9 799.874H1344.52L1326.18 824.872H1247.01L1220.79 805.297H1289.65C1291.08 810.111 1296.21 813.687 1302.3 813.687C1309.5 813.687 1315.35 808.721 1315.35 802.586C1315.35 796.467 1309.5 791.485 1302.3 791.485C1296.21 791.485 1291.08 795.061 1289.65 799.874H1138.52L1110.61 783.604H1068.53V789.027H1108.64L1136.55 805.297H1211.12L1244.62 830.296H1359.7C1361.11 835.109 1366.25 838.685 1372.34 838.685C1379.54 838.685 1385.41 833.702 1385.41 827.584C1385.41 821.466 1379.54 816.483 1372.34 816.483C1366.25 816.483 1361.11 820.059 1359.7 824.872H1333.7L1348.06 805.297H1451.9C1453.33 810.111 1458.44 813.687 1464.55 813.687C1471.73 813.687 1477.6 808.721 1477.6 802.586C1477.6 796.467 1471.73 791.485 1464.55 791.485ZM1302.3 796.908C1305.98 796.908 1308.99 799.45 1308.99 802.586C1308.99 805.721 1305.98 808.263 1302.3 808.263C1298.62 808.263 1295.62 805.721 1295.62 802.586C1295.62 799.45 1298.62 796.908 1302.3 796.908ZM1372.34 821.906C1376.02 821.906 1379.02 824.448 1379.02 827.584C1379.02 830.719 1376.02 833.261 1372.34 833.261C1368.65 833.261 1365.67 830.719 1365.67 827.584C1365.67 824.448 1368.65 821.906 1372.34 821.906ZM1464.55 808.263C1460.85 808.263 1457.87 805.721 1457.87 802.586C1457.87 799.45 1460.85 796.908 1464.55 796.908C1468.23 796.908 1471.22 799.45 1471.22 802.586C1471.22 805.721 1468.23 808.263 1464.55 808.263Z" fill="#696565"/>
<path d="M1248.48 593.567V609.006L1231.77 627.903C1229.82 626.903 1227.53 626.327 1225.09 626.327C1217.88 626.327 1212.03 631.293 1212.03 637.428C1212.03 643.546 1217.88 648.529 1225.09 648.529C1232.29 648.529 1238.14 643.546 1238.14 637.428C1238.14 635.36 1237.48 633.445 1236.33 631.784L1254.85 610.82V593.652C1260.62 592.499 1264.94 588.11 1264.94 582.856C1264.94 576.738 1259.09 571.755 1251.89 571.755C1244.68 571.755 1238.81 576.738 1238.81 582.856C1238.81 587.974 1242.93 592.279 1248.48 593.567ZM1225.09 643.106C1221.41 643.106 1218.4 640.546 1218.4 637.428C1218.4 634.293 1221.41 631.751 1225.09 631.751C1228.77 631.751 1231.77 634.293 1231.77 637.428C1231.77 640.546 1228.77 643.106 1225.09 643.106ZM1251.89 577.178C1255.57 577.178 1258.55 579.72 1258.55 582.856C1258.55 585.991 1255.57 588.533 1251.89 588.533C1248.2 588.533 1245.2 585.991 1245.2 582.856C1245.2 579.72 1248.2 577.178 1251.89 577.178Z" fill="#696565"/>
<path d="M1162.49 500.065V669.68H1101.35L1101.37 653.376C1107.04 652.156 1111.26 647.817 1111.26 642.631C1111.26 641.106 1110.88 639.682 1110.25 638.36L1126.68 629.852C1128.89 631.327 1131.68 632.208 1134.7 632.208C1141.9 632.208 1147.75 627.242 1147.75 621.107C1147.75 614.989 1141.9 610.006 1134.7 610.006C1127.5 610.006 1121.63 614.989 1121.63 621.107C1121.63 622.683 1122.03 624.192 1122.72 625.548L1106.41 634.005C1104.16 632.445 1101.29 631.513 1098.19 631.513C1090.99 631.513 1085.14 636.496 1085.14 642.614C1085.14 647.8 1089.34 652.156 1095.01 653.376L1094.99 669.68H1068.53V675.103H1168.86V538.622L1197.23 522.013L1197.15 405.242C1202.86 404.055 1207.1 399.683 1207.1 394.48C1207.1 388.345 1201.25 383.362 1194.05 383.362C1186.85 383.362 1181 388.345 1181 394.48C1181 399.632 1185.16 403.97 1190.77 405.208L1190.87 519.149L1168.86 532.046V500.065C1174.53 498.845 1178.73 494.489 1178.73 489.303C1178.73 483.185 1172.88 478.202 1165.68 478.202C1158.47 478.202 1152.63 483.185 1152.63 489.303C1152.63 494.489 1156.82 498.845 1162.49 500.065ZM1134.7 615.43C1138.38 615.43 1141.36 617.989 1141.36 621.107C1141.36 624.243 1138.38 626.802 1134.7 626.802C1131.02 626.802 1128.01 624.243 1128.01 621.107C1128.01 617.989 1131.02 615.43 1134.7 615.43ZM1091.53 642.631C1091.53 639.496 1094.51 636.937 1098.19 636.937C1101.87 636.937 1104.88 639.496 1104.88 642.631C1104.88 645.749 1101.87 648.309 1098.19 648.309C1094.51 648.309 1091.53 645.749 1091.53 642.631ZM1187.36 394.48C1187.36 391.344 1190.37 388.802 1194.05 388.802C1197.73 388.802 1200.73 391.344 1200.73 394.48C1200.73 397.598 1197.73 400.157 1194.05 400.157C1190.37 400.157 1187.36 397.598 1187.36 394.48ZM1165.68 483.626C1169.36 483.626 1172.36 486.185 1172.36 489.303C1172.36 492.439 1169.36 494.981 1165.68 494.981C1162 494.981 1158.99 492.439 1158.99 489.303C1158.99 486.185 1162 483.626 1165.68 483.626Z" fill="#696565"/>
<path d="M755.863 633.293C759.822 633.293 763.363 631.784 765.751 629.412L811.372 648.156L811.093 675.103H845.513V669.68H817.54L817.778 644.767L768.616 624.565C768.815 623.802 768.914 623.005 768.914 622.192C768.914 616.074 763.065 611.091 755.863 611.091C748.66 611.091 742.811 616.074 742.811 622.192C742.811 628.31 748.66 633.293 755.863 633.293ZM755.863 616.514C759.543 616.514 762.548 619.057 762.548 622.192C762.548 625.327 759.543 627.87 755.863 627.87C752.182 627.87 749.178 625.327 749.178 622.192C749.178 619.057 752.182 616.514 755.863 616.514Z" fill="#696565"/>
<path d="M664.859 652.207C670.967 652.207 676.08 648.631 677.513 643.817H726.079L794.839 691.119L795.734 691.712H845.672V686.289H797.982L684.954 608.549C685.929 606.99 686.486 605.21 686.486 603.312C686.486 597.194 680.637 592.211 673.434 592.211C666.232 592.211 660.383 597.194 660.383 603.312C660.383 609.447 666.232 614.43 673.434 614.43C676.1 614.43 678.587 613.735 680.656 612.565L718.2 638.394H677.513C676.08 633.581 670.967 630.005 664.859 630.005C657.657 630.005 651.807 634.971 651.807 641.106C651.807 647.224 657.657 652.207 664.859 652.207ZM673.434 609.006C669.754 609.006 666.749 606.447 666.749 603.329C666.749 600.193 669.754 597.634 673.434 597.634C677.115 597.634 680.119 600.193 680.119 603.329C680.119 606.447 677.115 609.006 673.434 609.006ZM664.859 635.428C668.54 635.428 671.544 637.97 671.544 641.106C671.544 644.241 668.54 646.783 664.859 646.783C661.178 646.783 658.174 644.241 658.174 641.106C658.194 637.97 661.178 635.428 664.859 635.428Z" fill="#696565"/>
<path d="M436.415 681.357C442.503 681.357 447.636 677.764 449.049 672.951H554.517L583.167 646.987H622.103L644.028 675.917H616.751C615.318 671.104 610.205 667.528 604.097 667.528C596.895 667.528 591.046 672.51 591.046 678.645C591.046 684.764 596.895 689.746 604.097 689.746C610.205 689.746 615.318 686.17 616.751 681.357H669.077L713.843 707.999H845.036V702.576H773.47L730.177 675.171C731.052 673.68 731.55 672.019 731.55 670.239C731.55 664.121 725.681 659.138 718.478 659.138C711.276 659.138 705.427 664.121 705.427 670.239C705.427 676.374 711.276 681.357 718.478 681.357C721.284 681.357 723.89 680.577 726.019 679.289L762.786 702.576H715.852L671.086 675.917H651.628L625.565 641.563H608.633L583.585 606.024H550.995L528.891 577.517C531.079 575.534 532.452 572.856 532.452 569.924C532.452 563.789 526.583 558.807 519.381 558.807C512.178 558.807 506.329 563.789 506.329 569.924C506.329 576.043 512.178 581.025 519.381 581.025C520.833 581.025 522.206 580.822 523.519 580.449L543.355 606.024H456.629C455.197 601.21 450.084 597.634 443.976 597.634C436.773 597.634 430.924 602.617 430.924 608.735C430.924 614.853 436.773 619.836 443.976 619.836C450.084 619.836 455.197 616.26 456.629 611.447H579.983L601.192 641.563H530.92C529.488 636.733 524.375 633.157 518.267 633.157C511.084 633.157 505.215 638.14 505.215 644.275C505.215 650.393 511.084 655.376 518.267 655.376C524.375 655.376 529.488 651.8 530.92 646.987H574.413L551.751 667.528H449.049C447.636 662.714 442.503 659.138 436.415 659.138C429.213 659.138 423.344 664.121 423.344 670.239C423.344 676.374 429.213 681.357 436.415 681.357ZM711.813 670.239C711.813 667.104 714.798 664.562 718.478 664.562C722.179 664.562 725.163 667.104 725.163 670.239C725.163 673.375 722.179 675.917 718.478 675.917C714.798 675.917 711.813 673.375 711.813 670.239ZM604.097 684.323C600.416 684.323 597.412 681.764 597.412 678.628C597.412 675.51 600.416 672.951 604.097 672.951C607.778 672.951 610.782 675.51 610.782 678.628C610.782 681.764 607.778 684.323 604.097 684.323ZM512.716 569.924C512.716 566.789 515.7 564.23 519.381 564.23C523.081 564.23 526.066 566.789 526.066 569.924C526.066 573.043 523.081 575.602 519.381 575.602C515.7 575.602 512.716 573.043 512.716 569.924ZM443.976 614.413C440.295 614.413 437.31 611.871 437.31 608.735C437.31 605.6 440.295 603.058 443.976 603.058C447.656 603.058 450.661 605.6 450.661 608.735C450.661 611.871 447.656 614.413 443.976 614.413ZM518.267 649.953C514.586 649.953 511.601 647.393 511.601 644.275C511.601 641.14 514.586 638.58 518.267 638.58C521.967 638.58 524.952 641.14 524.952 644.275C524.952 647.393 521.967 649.953 518.267 649.953ZM436.415 664.562C440.096 664.562 443.08 667.121 443.08 670.239C443.08 673.375 440.096 675.934 436.415 675.934C432.734 675.934 429.73 673.375 429.73 670.239C429.73 667.121 432.734 664.562 436.415 664.562Z" fill="#696565"/>
<mask id="mask2_70_351" style="mask-type:luminance" maskUnits="userSpaceOnUse" x="998" y="207" width="72" height="180">
<path d="M998.293 207.442H1069.6V386.141H998.293V207.442Z" fill="white"/>
</mask>
<g mask="url(#mask2_70_351)">
<path d="M1011.96 295.605V363.244C1006.29 364.465 1002.09 368.82 1002.09 374.006C1002.09 380.125 1007.94 385.107 1015.15 385.107C1022.35 385.107 1028.2 380.125 1028.2 374.006C1028.2 368.82 1024 364.465 1018.33 363.244V332.348L1058.42 313.079V229.424C1064.09 228.22 1068.29 223.865 1068.29 218.679C1068.29 212.544 1062.44 207.578 1055.24 207.578C1048.03 207.578 1042.18 212.544 1042.18 218.679C1042.18 223.865 1046.38 228.22 1052.05 229.424V309.909L1018.33 326.112V295.504C1023.88 294.233 1027.98 289.911 1027.98 284.81C1027.98 278.674 1022.11 273.692 1014.91 273.692C1007.7 273.692 1001.85 278.674 1001.85 284.81C1001.85 290.063 1006.17 294.47 1011.96 295.605ZM1048.55 218.679C1048.55 215.543 1051.55 213.001 1055.24 213.001C1058.92 213.001 1061.92 215.543 1061.92 218.679C1061.92 221.221 1059.93 223.356 1057.2 224.068H1053.27C1050.54 223.356 1048.55 221.221 1048.55 218.679ZM1021.83 374.006C1021.83 377.142 1018.83 379.684 1015.15 379.684C1011.46 379.684 1008.46 377.142 1008.46 374.006C1008.46 370.871 1011.46 368.329 1015.15 368.329C1018.83 368.329 1021.83 370.871 1021.83 374.006ZM1014.91 279.132C1018.59 279.132 1021.59 281.674 1021.59 284.81C1021.59 287.945 1018.59 290.487 1014.91 290.487C1011.23 290.487 1008.24 287.945 1008.24 284.81C1008.24 281.674 1011.23 279.132 1014.91 279.132Z" fill="#696565"/>
</g>
<path d="M1079.13 279.691V321.265L1044.87 337.67V425.444L1076.25 445.9V487.812L1054.04 499.675V469.169C1059.71 467.966 1063.91 463.61 1063.91 458.424C1063.91 452.289 1058.06 447.323 1050.86 447.323C1043.66 447.323 1037.79 452.289 1037.79 458.424C1037.79 463.61 1042 467.966 1047.65 469.169V556.824C1042 558.044 1037.79 562.383 1037.79 567.569C1037.79 568.569 1037.97 569.535 1038.26 570.467L1008.36 585.381V530.538C1014.01 529.334 1018.23 524.979 1018.23 519.793C1018.23 513.657 1012.36 508.675 1005.16 508.675C997.955 508.675 992.106 513.657 992.106 519.793C992.106 524.979 996.304 529.334 1001.97 530.538V650.529H1008.36V591.669L1041.39 575.195C1043.76 577.331 1047.12 578.687 1050.86 578.687C1058.06 578.687 1063.91 573.704 1063.91 567.569C1063.91 562.383 1059.71 558.044 1054.04 556.824V506.082L1082.61 490.812V419.766C1088.28 418.546 1092.48 414.207 1092.48 409.021C1092.48 402.886 1086.63 397.903 1079.43 397.903C1072.23 397.903 1066.36 402.886 1066.36 409.021C1066.36 414.19 1070.57 418.546 1076.23 419.766V439.053L1051.26 422.766V373.719L1115.72 343.382V301.825C1121.37 300.605 1125.59 296.25 1125.59 291.064C1125.59 284.945 1119.72 279.963 1112.52 279.963C1105.31 279.963 1099.46 284.945 1099.46 291.064C1099.46 296.25 1103.68 300.605 1109.33 301.825V340.179L1051.26 367.516V340.84L1085.5 324.434V279.522C1090.97 278.2 1094.99 273.929 1094.99 268.862C1094.99 262.727 1089.14 257.744 1081.94 257.744C1074.73 257.744 1068.86 262.727 1068.86 268.862C1068.88 274.166 1073.28 278.607 1079.13 279.691ZM998.492 519.793C998.492 516.657 1001.48 514.115 1005.16 514.115C1008.84 514.115 1011.84 516.657 1011.84 519.793C1011.84 522.911 1008.84 525.47 1005.16 525.47C1001.48 525.47 998.492 522.911 998.492 519.793ZM1044.17 458.424C1044.17 455.289 1047.18 452.747 1050.86 452.747C1054.54 452.747 1057.54 455.289 1057.54 458.424C1057.54 461.56 1054.54 464.102 1050.86 464.102C1047.18 464.102 1044.17 461.543 1044.17 458.424ZM1057.52 567.569C1057.52 570.704 1054.54 573.263 1050.86 573.263C1047.18 573.263 1044.17 570.704 1044.17 567.569C1044.17 564.45 1047.18 561.891 1050.86 561.891C1054.54 561.891 1057.52 564.45 1057.52 567.569ZM1072.74 409.021C1072.74 405.886 1075.75 403.327 1079.43 403.327C1083.11 403.327 1086.11 405.886 1086.11 409.021C1086.11 412.139 1083.11 414.699 1079.43 414.699C1075.75 414.699 1072.74 412.139 1072.74 409.021ZM1105.85 291.064C1105.85 287.928 1108.83 285.386 1112.52 285.386C1116.2 285.386 1119.2 287.928 1119.2 291.064C1119.2 294.199 1116.2 296.741 1112.52 296.741C1108.83 296.741 1105.85 294.199 1105.85 291.064ZM1081.94 263.184C1085.62 263.184 1088.62 265.726 1088.62 268.862C1088.62 271.997 1085.62 274.539 1081.94 274.539C1078.25 274.539 1075.25 271.997 1075.25 268.862C1075.25 265.726 1078.25 263.184 1081.94 263.184Z" fill="#696565"/>
<path d="M912.662 902.968V842.108H906.275V899.85L868.015 918.95V935.101L836.739 947.253V1037.86C831.089 1039.08 826.871 1043.43 826.871 1048.62C826.871 1054.74 832.74 1059.72 839.942 1059.72C847.125 1059.72 852.994 1054.74 852.994 1048.62C852.994 1043.43 848.776 1039.08 843.126 1037.86V950.727L868.015 941.067V969.082C862.345 970.302 858.147 974.658 858.147 979.844C858.147 985.962 863.996 990.945 871.199 990.945C878.401 990.945 884.25 985.962 884.25 979.844C884.25 974.658 880.052 970.302 874.382 969.082V922.068L906.275 906.137V971.573L887.135 996.385V1051.43L863.857 1073.21V1127.22C858.187 1128.43 853.989 1132.78 853.989 1137.97C853.989 1144.1 859.838 1149.07 867.04 1149.07C874.243 1149.07 880.112 1144.1 880.112 1137.97C880.112 1132.78 875.894 1128.43 870.244 1127.22V1075.29L893.522 1053.53V998.012L912.662 973.2V902.968ZM846.607 1048.62C846.607 1051.74 843.623 1054.3 839.942 1054.3C836.242 1054.3 833.257 1051.74 833.257 1048.62C833.257 1045.48 836.242 1042.92 839.942 1042.92C843.623 1042.92 846.607 1045.48 846.607 1048.62ZM877.884 979.844C877.884 982.979 874.879 985.521 871.199 985.521C867.518 985.521 864.514 982.979 864.514 979.844C864.514 976.709 867.518 974.166 871.199 974.166C874.879 974.166 877.884 976.709 877.884 979.844ZM873.725 1137.97C873.725 1141.1 870.721 1143.65 867.04 1143.65C863.36 1143.65 860.375 1141.1 860.375 1137.97C860.375 1134.83 863.36 1132.29 867.04 1132.29C870.721 1132.29 873.725 1134.83 873.725 1137.97Z" fill="#696565"/>
<path d="M540.988 843.176L577.676 813.432H720.786L748.959 773.096H844.439V767.673H745.338L717.165 808.009H664.143L650.634 791.976H556.009L539.277 773.74H464.349C462.916 768.927 457.783 765.351 451.695 765.351C444.493 765.351 438.643 770.334 438.643 776.452C438.643 782.57 444.493 787.553 451.695 787.553C457.783 787.553 462.916 783.977 464.349 779.163H536.153L552.905 797.399H647.371L656.304 808.009H525.051C523.619 803.196 518.505 799.62 512.417 799.62C505.215 799.62 499.346 804.602 499.346 810.72C499.346 816.856 505.215 821.838 512.417 821.838C518.505 821.838 523.638 818.245 525.051 813.432H568.424L538.421 837.752H454.481C453.048 832.939 447.935 829.363 441.827 829.363C434.624 829.363 428.775 834.346 428.775 840.464C428.775 846.582 434.624 851.565 441.827 851.565C447.915 851.565 453.048 847.989 454.481 843.176H540.988ZM451.695 782.129C448.014 782.129 445.01 779.587 445.01 776.452C445.01 773.316 448.014 770.774 451.695 770.774C455.376 770.774 458.38 773.316 458.38 776.452C458.38 779.587 455.376 782.129 451.695 782.129ZM512.417 816.415C508.736 816.415 505.732 813.856 505.732 810.72C505.732 807.602 508.736 805.043 512.417 805.043C516.098 805.043 519.082 807.602 519.082 810.72C519.082 813.856 516.098 816.415 512.417 816.415ZM441.827 846.142C438.146 846.142 435.142 843.599 435.142 840.464C435.142 837.329 438.146 834.786 441.827 834.786C445.508 834.786 448.512 837.329 448.512 840.464C448.512 843.599 445.508 846.142 441.827 846.142Z" fill="#696565"/>
<path d="M671.226 859.886H742.612L779.3 805.636H844.439V800.213H775.599L738.931 854.463H594.428C592.995 849.65 587.882 846.074 581.794 846.074C574.592 846.074 568.722 851.057 568.722 857.175C568.722 863.293 574.592 868.276 581.794 868.276C587.882 868.276 593.015 864.7 594.428 859.886H664.023L648.624 884.885H518.963C517.53 880.071 512.417 876.495 506.309 876.495C499.107 876.495 493.257 881.461 493.257 887.596C493.257 893.715 499.107 898.697 506.309 898.697C512.417 898.697 517.53 895.121 518.963 890.308H652.484L671.226 859.886ZM581.794 862.852C578.113 862.852 575.109 860.31 575.109 857.175C575.109 854.039 578.113 851.497 581.794 851.497C585.475 851.497 588.459 854.039 588.459 857.175C588.459 860.31 585.475 862.852 581.794 862.852ZM506.309 893.274C502.628 893.274 499.644 890.715 499.644 887.596C499.644 884.461 502.628 881.919 506.309 881.919C509.99 881.919 512.994 884.461 512.994 887.596C512.994 890.715 509.99 893.274 506.309 893.274Z" fill="#696565"/>
<mask id="mask3_70_351" style="mask-type:luminance" maskUnits="userSpaceOnUse" x="353" y="685" width="493" height="66">
<path d="M353.569 685.509H845.493V750.589H353.569V685.509Z" fill="white"/>
</mask>
<g mask="url(#mask3_70_351)">
<path d="M440.752 737.15L463.473 700.779H507.065L535.755 735.116H504.339C502.907 730.303 497.794 726.727 491.686 726.727C484.503 726.727 478.634 731.709 478.634 737.827C478.634 743.946 484.503 748.928 491.686 748.928C497.794 748.928 502.907 745.352 504.339 740.539H590.608L615.577 712.067H657.597L679.204 724.269H845.036V718.846H681.134L659.527 706.643H579.506C577.874 702.101 572.901 698.796 567.031 698.796C559.829 698.796 553.98 703.779 553.98 709.897C553.98 716.016 559.829 720.998 567.031 720.998C573.358 720.998 578.65 717.151 579.844 712.067H607.619L587.405 735.116H543.574L510.348 695.356H409.715C408.282 690.543 403.169 686.967 397.061 686.967C389.859 686.967 384.009 691.949 384.009 698.068C384.009 704.186 389.859 709.169 397.061 709.169C403.169 709.169 408.282 705.593 409.715 700.779H456.251L436.912 731.726H379.274C377.842 726.913 372.729 723.337 366.621 723.337C359.418 723.337 353.569 728.32 353.569 734.438C353.569 740.556 359.418 745.539 366.621 745.539C372.729 745.539 377.842 741.963 379.274 737.15H440.752ZM491.686 743.505C488.005 743.505 485.021 740.963 485.021 737.827C485.021 734.692 488.005 732.15 491.686 732.15C495.386 732.15 498.371 734.692 498.371 737.827C498.371 740.963 495.386 743.505 491.686 743.505ZM567.031 715.575C563.351 715.575 560.346 713.033 560.346 709.897C560.346 706.762 563.351 704.22 567.031 704.22C570.712 704.22 573.716 706.762 573.716 709.897C573.716 713.033 570.712 715.575 567.031 715.575ZM397.061 703.745C393.38 703.745 390.396 701.186 390.396 698.068C390.396 694.932 393.38 692.39 397.061 692.39C400.762 692.39 403.746 694.932 403.746 698.068C403.746 701.203 400.762 703.745 397.061 703.745ZM366.621 740.115C362.94 740.115 359.955 737.573 359.955 734.438C359.955 731.303 362.94 728.76 366.621 728.76C370.301 728.76 373.306 731.303 373.306 734.438C373.306 737.573 370.301 740.115 366.621 740.115Z" fill="#696565"/>
</g>
<path d="M856.257 777.536L801.683 731.065V607.617L843.365 572.06V474.237H841.236V571.331L799.554 606.837V731.845L854.765 778.875L856.257 777.536Z" fill="#696565"/>
<path d="M886.598 497.472V578.382L814.436 639.852V726.201L892.945 793.078V869.903C890.319 870.581 888.389 872.631 888.389 875.123C888.389 878.105 891.234 880.529 894.736 880.529C898.217 880.529 901.062 878.105 901.062 875.123C901.062 872.631 899.152 870.581 896.506 869.903V791.874L817.997 724.998V641.123L890.159 579.653V497.472C892.806 496.811 894.736 494.744 894.736 492.252C894.736 489.286 891.871 486.863 888.389 486.863C884.907 486.863 882.042 489.286 882.042 492.252C882.042 494.744 883.972 496.811 886.598 497.472Z" fill="#696565"/>
<path d="M833.237 671.832C833.237 669.409 830.89 667.392 828.045 667.392C825.2 667.392 822.852 669.409 822.852 671.832C822.852 673.951 824.623 675.781 826.97 676.205V718.795L867.438 753.267C866.881 753.996 866.583 754.793 866.583 755.691C866.583 758.131 868.931 760.131 871.796 760.131C874.641 760.131 876.988 758.131 876.988 755.691C876.988 753.267 874.641 751.267 871.796 751.267C870.721 751.267 869.726 751.505 868.931 751.996L829.039 718.016V676.205C831.467 675.781 833.237 673.951 833.237 671.832Z" fill="#696565"/>
<path d="M908.265 459.611V607.803L883.116 629.225C882.261 628.751 881.326 628.497 880.271 628.497C877.426 628.497 875.059 630.497 875.059 632.937C875.059 635.361 877.426 637.36 880.271 637.36C883.116 637.36 885.464 635.361 885.464 632.937C885.464 632.022 885.186 631.174 884.609 630.497L910.394 608.532V459.611C912.761 459.187 914.532 457.424 914.532 455.238C914.532 452.815 912.184 450.815 909.339 450.815C906.474 450.815 904.126 452.815 904.126 455.238C904.126 457.374 905.917 459.187 908.265 459.611Z" fill="#696565"/>
<path d="M760.22 756.369C762.727 756.369 764.855 754.843 765.353 752.843H800.688L840.937 787.129V856.192L890.378 898.307C889.821 899.036 889.523 899.833 889.523 900.731C889.523 903.171 891.87 905.171 894.735 905.171C897.581 905.171 899.928 903.171 899.928 900.731C899.928 898.307 897.581 896.308 894.735 896.308C893.661 896.308 892.666 896.545 891.87 897.036L843.006 855.412V786.349L801.464 750.962H765.273C764.776 748.962 762.727 747.437 760.16 747.437C757.295 747.437 754.947 749.454 754.947 751.877C755.027 754.369 757.375 756.369 760.22 756.369Z" fill="#696565"/>
<mask id="mask4_70_351" style="mask-type:luminance" maskUnits="userSpaceOnUse" x="736" y="490" width="207" height="663">
<path d="M736.046 490.269H942.267V1152H736.046V490.269Z" fill="white"/>
</mask>
<g mask="url(#mask4_70_351)">
<path d="M933.055 958.269V503.065C936.039 502.641 938.327 500.387 938.327 497.726C938.327 494.744 935.482 492.32 931.98 492.32C928.499 492.32 925.653 494.744 925.653 497.726C925.653 500.387 927.922 502.641 930.926 503.065V957.54L910.393 975.014V680.272L859.818 637.174C860.395 636.445 860.674 635.666 860.674 634.75C860.674 632.327 858.326 630.327 855.481 630.327C852.616 630.327 850.268 632.327 850.268 634.75C850.268 637.174 852.616 639.174 855.481 639.174C856.535 639.174 857.55 638.937 858.326 638.445L908.264 681.001V976.776L895.79 987.403V923.56L826.274 864.327V837.447L796.35 811.958H761.214L737.578 791.807L736.066 793.078L760.359 813.771H795.495L824.125 838.176V864.988L893.661 924.221V989.148L873.566 1006.27V940.914L785.726 866.089V840.363C788.372 839.685 790.282 837.617 790.282 835.143C790.282 832.16 787.437 829.736 783.955 829.736C780.454 829.736 777.609 832.16 777.609 835.143C777.609 837.617 779.538 839.685 782.165 840.363V867.361L870.005 942.186V1009.3L835.306 1038.86V1119.82C832.322 1120.24 830.034 1122.48 830.034 1125.16C830.034 1128.12 832.899 1130.56 836.381 1130.56C839.863 1130.56 842.728 1128.12 842.728 1125.16C842.728 1122.48 840.44 1120.24 837.455 1119.82V1039.59L870.005 1011.86V1075.33C867.379 1075.99 865.449 1078.06 865.449 1080.55C865.449 1083.51 868.294 1085.95 871.795 1085.95C875.277 1085.95 878.122 1083.51 878.122 1080.55C878.122 1078.06 876.212 1075.99 873.566 1075.33V1008.82L893.661 991.707V1118.78L875.993 1133.83V1151.49H878.122V1134.61L895.79 1119.56V989.945L908.264 979.318V1065.99H910.393V977.505L933.055 958.269Z" fill="#696565"/>
</g>
<path d="M981.362 543.486L948.594 571.399V1016.21L930.846 1031.4V1143.9H932.995V1032.13L950.722 1017.01V572.128L982.934 544.757L981.362 543.486Z" fill="#696565"/>
<path d="M1109.17 533.097C1110.03 533.588 1111.02 533.893 1112.16 533.893C1115.14 533.893 1117.57 531.826 1117.57 529.283C1117.57 526.724 1115.14 524.674 1112.16 524.674C1109.17 524.674 1106.75 526.724 1106.75 529.283C1106.75 530.182 1107.1 531.097 1107.66 531.826L1058.3 573.89V718.795L995.886 771.961C995.03 771.469 994.036 771.164 992.902 771.164C989.917 771.164 987.49 773.232 987.49 775.791C987.49 778.333 989.917 780.401 992.902 780.401C995.886 780.401 998.313 778.333 998.313 775.791C998.313 774.876 997.955 773.961 997.378 773.232L1060.37 719.592V658.24L1086.73 635.784V603.125L1106.81 586.025C1107.66 586.5 1108.68 586.805 1109.81 586.805C1112.79 586.805 1115.22 584.737 1115.22 582.195C1115.22 579.653 1112.79 577.585 1109.81 577.585C1106.81 577.585 1104.4 579.653 1104.4 582.195C1104.4 583.11 1104.76 584.025 1105.31 584.754L1084.58 602.397V635.055L1060.37 655.681V574.619L1109.17 533.097Z" fill="#696565"/>
<path d="M1023.46 708.067V635.598L993.618 610.227V451.12L1126.54 337.874L1125.05 336.603L991.469 450.391V610.955L1021.33 636.394V707.338L973.941 747.691V999.283H976.09V748.471L1023.46 708.067Z" fill="#696565"/>
<path d="M1126.54 386.599L1125.05 385.277L1015.05 478.965V598.584L1031.3 612.413V710.796H1033.43V611.684L1017.19 597.855V479.762L1126.54 386.599Z" fill="#696565"/>
<path d="M984.068 767.842L1043.06 717.592V496.082L1110.67 438.493L1124.69 450.442V479.456C1122.2 479.88 1120.35 481.761 1120.35 483.948C1120.35 486.49 1122.78 488.557 1125.77 488.557C1128.75 488.557 1131.18 486.49 1131.18 483.948C1131.18 481.694 1129.33 479.88 1126.84 479.456V449.662L1110.67 435.883L1040.91 495.303V600.278L1029.81 590.821V486.863L1119.78 410.207L1147.85 434.121V591.177C1145.36 591.601 1143.51 593.482 1143.51 595.668C1143.51 598.21 1145.92 600.278 1148.92 600.278C1151.91 600.278 1154.34 598.21 1154.34 595.668C1154.34 593.431 1152.49 591.601 1149.98 591.177V433.392L1119.78 407.665L1027.66 486.066V591.55L1040.91 602.837V716.795L981.919 767.046V834.414L997.179 847.396V1048.19H999.308V846.599L984.068 833.617V767.842Z" fill="#696565"/>
<path d="M1194.67 742.709C1191.74 742.709 1189.39 744.708 1189.23 747.2H1175.57L1115.22 798.603C1114.29 798.061 1113.23 797.688 1112.02 797.688C1109.23 797.688 1106.96 799.518 1106.67 801.823H1085.16C1084.88 799.518 1082.59 797.688 1079.81 797.688C1078.67 797.688 1077.6 797.993 1076.74 798.535L1067.71 790.841H1021.39L1009.49 800.976V784.638L1082.51 722.439V694.831L1119.78 663.087H1154.97L1163.09 656.173V650.105C1165.6 649.681 1167.45 647.8 1167.45 645.614C1167.45 643.072 1165.02 641.004 1162.04 641.004C1159.03 641.004 1156.6 643.072 1156.6 645.614C1156.6 647.851 1158.47 649.681 1160.96 650.105V655.444L1154.06 661.325H1118.86L1080.38 694.102V721.71L1007.37 783.909V802.857L1007.29 802.908L1007.37 802.975V1005.96L1037.49 1031.64V1048.38H1039.64V1030.91L1009.49 1005.23V803.586L1022.25 792.722H1066.77L1075.25 799.942C1074.75 800.67 1074.39 801.45 1074.39 802.365C1074.39 804.907 1076.82 806.975 1079.81 806.975C1082.23 806.975 1084.3 805.585 1084.94 803.755H1106.88C1107.52 805.636 1109.59 806.975 1112.02 806.975C1115 806.975 1117.43 804.907 1117.43 802.365C1117.43 801.518 1117.15 800.721 1116.65 800.06L1176.42 749.149H1189.53C1190.31 750.844 1192.24 752.064 1194.51 752.064C1197.51 752.064 1199.92 749.996 1199.92 747.437C1199.92 744.895 1197.65 742.709 1194.67 742.709Z" fill="#696565"/>
<mask id="mask5_70_351" style="mask-type:luminance" maskUnits="userSpaceOnUse" x="1049" y="263" width="161" height="518">
<path d="M1049.23 263.659H1209.73V780.96H1049.23V263.659Z" fill="white"/>
</mask>
<g mask="url(#mask5_70_351)">
<path d="M1204.55 689.848V444.747L1147.57 396.191V263.659H1145.42V396.869L1202.42 445.408V689.797C1199.92 690.221 1198.07 692.102 1198.07 694.288C1198.07 695.983 1199.14 697.441 1200.71 698.22L1153.84 738.167H1095.62L1049.68 777.299L1051.18 778.57L1096.56 739.912H1154.75L1202.98 698.83C1203.14 698.83 1203.28 698.83 1203.5 698.83C1206.48 698.83 1208.91 696.78 1208.91 694.221C1208.83 692.102 1206.98 690.272 1204.55 689.848Z" fill="#696565"/>
</g>
</svg>
