<svg xmlns="http://www.w3.org/2000/svg" xmlns:xlink="http://www.w3.org/1999/xlink" width="500" zoomAndPan="magnify" viewBox="0 0 375 374.999991" height="500" preserveAspectRatio="xMidYMid meet" version="1.0"><defs><clipPath id="1b48a07b12"><path d="M 88.234375 83 L 271 83 L 271 243 L 88.234375 243 Z M 88.234375 83 " clip-rule="nonzero"/></clipPath><clipPath id="8157896f05"><path d="M 97 82.714844 L 281.734375 82.714844 L 281.734375 248.464844 L 97 248.464844 Z M 97 82.714844 " clip-rule="nonzero"/></clipPath></defs><g clip-path="url(#1b48a07b12)"><path fill="#000000" d="M 101.683594 240.984375 L 173.324219 240.984375 L 173.324219 242.460938 L 101.683594 242.460938 Z M 115.488281 100.070312 C 115.488281 97.882812 117.265625 96.101562 119.457031 96.101562 C 121.644531 96.101562 123.425781 97.878906 123.425781 100.070312 C 123.425781 102.253906 121.648438 104.039062 119.457031 104.039062 C 117.265625 104.039062 115.488281 102.261719 115.488281 100.070312 Z M 117.054688 100.070312 C 117.054688 101.394531 118.132812 102.472656 119.457031 102.472656 C 120.78125 102.472656 121.859375 101.394531 121.859375 100.070312 C 121.859375 98.746094 120.78125 97.667969 119.457031 97.667969 C 118.128906 97.667969 117.054688 98.746094 117.054688 100.070312 Z M 227.957031 162.664062 L 226.480469 162.664062 L 226.480469 170.527344 L 227.957031 170.527344 Z M 224.769531 242.460938 L 265.753906 242.460938 L 265.753906 240.984375 L 224.769531 240.984375 Z M 185.976562 237.085938 C 166.046875 237.085938 148.027344 228.769531 135.191406 215.429688 L 128.410156 221.8125 L 127.398438 220.734375 L 134.183594 214.351562 C 122.742188 201.949219 115.6875 185.449219 115.5 167.332031 L 104.609375 167.332031 L 104.609375 178.769531 L 88.445312 178.769531 L 88.445312 154.421875 L 104.609375 154.421875 L 104.609375 165.859375 L 115.5 165.859375 C 115.894531 127.574219 146.960938 96.515625 185.242188 96.117188 L 185.242188 83.453125 L 186.71875 83.453125 L 186.71875 96.117188 C 221.574219 96.476562 250.449219 122.253906 255.636719 155.757812 L 269.808594 153.703125 L 270.019531 155.167969 L 255.847656 157.21875 C 256.257812 160.285156 256.472656 163.417969 256.472656 166.59375 C 256.46875 205.464844 224.847656 237.085938 185.976562 237.085938 Z M 103.132812 155.898438 L 89.921875 155.898438 L 89.921875 177.292969 L 103.132812 177.292969 Z M 186.714844 107.882812 C 215.65625 108.242188 239.617188 129.632812 243.984375 157.445312 L 254.171875 155.96875 C 249.085938 123.179688 220.828125 97.953125 186.714844 97.59375 Z M 186.714844 140.328125 C 200.871094 140.722656 212.261719 152.351562 212.261719 166.59375 C 212.261719 173.574219 209.519531 179.925781 205.066406 184.636719 L 219.191406 198.761719 L 218.175781 199.835938 L 204.019531 185.679688 C 199.476562 189.980469 193.40625 192.671875 186.714844 192.859375 L 186.714844 207.09375 L 189.90625 207.09375 L 189.90625 208.570312 L 182.042969 208.570312 L 182.042969 207.09375 L 185.234375 207.09375 L 185.234375 192.859375 C 171.324219 192.46875 160.089844 181.234375 159.707031 167.332031 L 145.472656 167.332031 L 145.472656 170.523438 L 143.996094 170.523438 L 143.996094 167.332031 L 128.734375 167.332031 C 129.132812 198.554688 154.648438 223.835938 185.972656 223.835938 C 217.535156 223.835938 243.214844 198.15625 243.214844 166.59375 C 243.214844 135.277344 217.933594 109.753906 186.710938 109.355469 L 186.710938 124.617188 L 189.902344 124.617188 L 189.902344 126.09375 L 186.710938 126.09375 L 186.710938 140.328125 Z M 182.046875 126.09375 L 182.046875 124.617188 L 185.238281 124.617188 L 185.238281 109.355469 C 170.011719 109.546875 156.199219 115.714844 146.042969 125.617188 L 167.933594 147.503906 C 172.476562 143.207031 178.546875 140.515625 185.238281 140.328125 L 185.238281 126.09375 Z M 161.1875 165.855469 L 172.609375 165.855469 C 172.980469 159.054688 178.445312 153.597656 185.242188 153.222656 L 185.242188 141.800781 C 172.148438 142.1875 161.570312 152.765625 161.1875 165.855469 Z M 145.003906 126.664062 C 135.105469 136.820312 128.941406 150.632812 128.742188 165.859375 L 144.003906 165.859375 L 144.003906 162.667969 L 145.484375 162.667969 L 145.484375 165.859375 L 159.714844 165.859375 C 159.902344 159.167969 162.597656 153.097656 166.894531 148.554688 Z M 186.714844 153.226562 C 193.753906 153.609375 199.367188 159.460938 199.367188 166.597656 C 199.367188 173.984375 193.363281 179.988281 185.976562 179.988281 C 178.84375 179.988281 172.992188 174.378906 172.605469 167.335938 L 161.183594 167.335938 C 161.578125 180.675781 172.542969 191.40625 185.972656 191.40625 C 199.652344 191.40625 210.78125 180.277344 210.78125 166.597656 C 210.78125 153.167969 200.046875 142.199219 186.710938 141.808594 L 186.710938 153.226562 Z M 174.09375 165.855469 L 183.085938 165.855469 L 183.085938 167.332031 L 174.09375 167.332031 C 174.476562 173.558594 179.660156 178.507812 185.980469 178.507812 C 192.550781 178.507812 197.894531 173.160156 197.894531 166.59375 C 197.894531 160.027344 192.550781 154.679688 185.980469 154.679688 C 179.65625 154.679688 174.472656 159.628906 174.09375 165.855469 Z M 116.976562 165.855469 L 127.265625 165.855469 C 127.457031 150.222656 133.789062 136.042969 143.960938 125.617188 L 139.480469 121.136719 C 139.855469 120.816406 140.203125 120.464844 140.523438 120.09375 L 145.003906 124.574219 C 155.425781 114.40625 169.605469 108.074219 185.242188 107.878906 L 185.242188 97.589844 C 147.773438 97.988281 117.371094 128.386719 116.976562 165.855469 Z M 135.257812 213.339844 L 142.746094 206.289062 C 133.289062 196 127.453125 182.332031 127.265625 167.332031 L 116.976562 167.332031 C 117.164062 185.0625 124.066406 201.203125 135.257812 213.339844 Z M 254.992188 166.59375 C 254.992188 163.488281 254.78125 160.429688 254.382812 157.429688 L 244.195312 158.90625 C 244.523438 161.425781 244.699219 163.988281 244.699219 166.597656 C 244.699219 198.980469 218.351562 225.320312 185.976562 225.320312 C 169.417969 225.320312 154.441406 218.425781 143.753906 207.363281 L 136.265625 214.414062 C 148.832031 227.46875 166.46875 235.605469 185.976562 235.605469 C 224.035156 235.609375 254.992188 204.652344 254.992188 166.59375 Z M 254.992188 166.59375 " fill-opacity="1" fill-rule="nonzero"/></g><g clip-path="url(#8157896f05)"><path fill="#000000" d="M 110.597656 189.117188 L 110.382812 188.410156 L 97.824219 192.160156 L 98.035156 192.871094 C 105.089844 216.433594 121.683594 236.515625 143.5625 247.964844 L 144.21875 248.3125 L 150.273438 236.6875 L 149.617188 236.347656 C 130.863281 226.53125 116.640625 209.316406 110.597656 189.117188 Z M 143.59375 246.3125 C 122.605469 235.105469 106.652344 215.796875 99.660156 193.15625 L 109.390625 190.246094 C 115.59375 210.285156 129.714844 227.371094 148.277344 237.308594 Z M 211.351562 84.191406 L 173.324219 84.191406 L 173.324219 82.714844 L 211.347656 82.714844 L 211.347656 84.191406 Z M 185.976562 162.628906 C 183.789062 162.628906 182.007812 164.40625 182.007812 166.597656 C 182.007812 168.785156 183.785156 170.566406 185.976562 170.566406 C 188.164062 170.566406 189.945312 168.789062 189.945312 166.597656 C 189.945312 164.40625 188.167969 162.628906 185.976562 162.628906 Z M 185.976562 169.085938 C 184.601562 169.085938 183.484375 167.96875 183.484375 166.59375 C 183.484375 165.21875 184.601562 164.101562 185.976562 164.101562 C 187.351562 164.101562 188.46875 165.21875 188.46875 166.59375 C 188.46875 167.96875 187.351562 169.085938 185.976562 169.085938 Z M 133.320312 124.160156 C 138.960938 124.160156 143.542969 119.574219 143.542969 113.9375 C 143.542969 108.300781 138.960938 103.71875 133.320312 103.71875 C 127.683594 103.71875 123.101562 108.300781 123.101562 113.9375 C 123.105469 119.574219 127.691406 124.160156 133.320312 124.160156 Z M 133.320312 105.195312 C 138.140625 105.195312 142.066406 109.117188 142.066406 113.9375 C 142.066406 118.757812 138.140625 122.683594 133.320312 122.683594 C 128.5 122.683594 124.578125 118.757812 124.578125 113.9375 C 124.582031 109.117188 128.5 105.195312 133.320312 105.195312 Z M 251.902344 224.609375 L 226.078125 198.601562 L 225.859375 198.382812 L 217.742188 198.355469 L 217.710938 206.472656 L 243.753906 232.699219 Z M 219.214844 199.835938 L 225.246094 199.855469 L 249.8125 224.601562 L 243.761719 230.605469 L 219.195312 205.863281 Z M 221.574219 89.785156 L 191.949219 89.785156 L 191.949219 88.308594 L 221.574219 88.308594 Z M 101.683594 246.578125 L 122.492188 246.578125 L 122.492188 248.054688 L 101.683594 248.054688 Z M 109.902344 235.390625 L 109.902344 236.871094 L 101.683594 236.871094 L 101.683594 235.390625 Z M 221.574219 84.191406 L 216.070312 84.191406 L 216.070312 82.714844 L 221.574219 82.714844 Z M 268.382812 117.832031 C 264.828125 111.847656 260.601562 106.226562 255.824219 101.132812 L 255.316406 100.597656 L 246.5625 108.804688 L 247.070312 109.339844 C 261.699219 124.9375 269.753906 145.269531 269.753906 166.597656 C 269.753906 181.378906 265.828125 195.921875 258.402344 208.652344 L 258.03125 209.292969 L 265.054688 213.371094 L 265.425781 212.734375 C 273.445312 198.980469 277.742188 183.292969 277.871094 167.335938 L 281.75 167.335938 L 281.75 166.597656 C 281.753906 149.421875 277.132812 132.558594 268.382812 117.832031 Z M 276.398438 165.855469 L 276.398438 166.59375 C 276.398438 182.300781 272.292969 197.757812 264.519531 211.347656 L 260.046875 208.753906 C 267.363281 195.945312 271.222656 181.386719 271.222656 166.59375 C 271.222656 145.136719 263.210938 124.667969 248.644531 108.867188 L 255.242188 102.683594 C 259.742188 107.558594 263.730469 112.90625 267.109375 118.585938 C 275.597656 132.875 280.140625 149.203125 280.269531 165.859375 L 276.398438 165.859375 Z M 241.492188 246.578125 L 265.753906 246.578125 L 265.753906 248.054688 L 241.492188 248.054688 Z M 241.492188 246.578125 " fill-opacity="1" fill-rule="nonzero"/></g></svg>
