<svg xmlns="http://www.w3.org/2000/svg" xmlns:xlink="http://www.w3.org/1999/xlink" width="500" zoomAndPan="magnify" viewBox="0 0 375 374.999991" height="500" preserveAspectRatio="xMidYMid meet" version="1.0"><defs><clipPath id="7eca7e8cb5"><path d="M 89 54.320312 L 282 54.320312 L 282 260 L 89 260 Z M 89 54.320312 " clip-rule="nonzero"/></clipPath><clipPath id="1ef5e1fc2b"><path d="M 79.964844 59 L 283.214844 59 L 283.214844 261.320312 L 79.964844 261.320312 Z M 79.964844 59 " clip-rule="nonzero"/></clipPath></defs><g clip-path="url(#7eca7e8cb5)"><path fill="#000000" d="M 177.042969 187.957031 L 177.988281 189.710938 C 171.449219 188.929688 165.550781 186.027344 161.003906 181.714844 L 126.710938 216.003906 C 129.1875 218.433594 131.820312 220.699219 134.597656 222.78125 L 133.628906 224.070312 C 127.621094 219.570312 122.277344 214.25 117.742188 208.265625 L 119.027344 207.292969 C 121.046875 209.957031 123.238281 212.484375 125.570312 214.867188 L 159.859375 180.578125 C 154.765625 175.207031 151.636719 167.96875 151.636719 160.003906 C 151.636719 155.21875 152.773438 150.695312 154.777344 146.679688 L 155.722656 148.4375 C 154.132812 151.96875 153.242188 155.882812 153.242188 159.996094 C 153.257812 174.074219 163.574219 185.78125 177.042969 187.957031 Z M 181.582031 131.675781 C 189.71875 131.675781 197.058594 135.128906 202.230469 140.636719 L 204.367188 140.617188 C 199.035156 134.359375 191.183594 130.316406 182.386719 130.078125 L 182.386719 81.613281 C 185.796875 81.644531 189.207031 81.886719 192.554688 82.359375 L 192.777344 80.761719 C 185.410156 79.730469 177.753906 79.730469 170.382812 80.761719 L 170.609375 82.359375 C 173.957031 81.890625 177.367188 81.648438 180.777344 81.613281 L 180.777344 130.089844 C 171.792969 130.332031 163.785156 134.546875 158.445312 141.039062 L 160.578125 141.019531 C 165.765625 135.285156 173.257812 131.675781 181.582031 131.675781 Z M 244.296875 207.0625 C 242.230469 209.8125 239.984375 212.414062 237.582031 214.867188 L 203.292969 180.578125 C 208.386719 175.207031 211.515625 167.96875 211.515625 160.003906 C 211.515625 155.101562 210.324219 150.472656 208.222656 146.382812 L 207.277344 148.117188 C 208.960938 151.734375 209.898438 155.761719 209.898438 160.003906 C 209.898438 174.261719 199.304688 186.09375 185.570312 188.042969 L 184.625 189.78125 C 191.382812 189.09375 197.476562 186.144531 202.148438 181.714844 L 236.441406 216.003906 C 234.054688 218.339844 231.53125 220.53125 228.863281 222.550781 L 229.835938 223.835938 C 235.789062 219.324219 241.089844 214.007812 245.582031 208.03125 Z M 214.800781 228.976562 L 217.203125 234.09375 L 216.472656 234.4375 C 205.515625 239.582031 193.773438 242.191406 181.574219 242.191406 L 180.769531 242.191406 L 180.769531 236.535156 L 181.574219 236.535156 C 192.941406 236.535156 203.867188 234.109375 214.070312 229.320312 Z M 215.058594 233.3125 L 214.027344 231.113281 C 204.066406 235.667969 193.429688 238.03125 182.386719 238.140625 L 182.386719 240.574219 C 193.789062 240.46875 204.769531 238.023438 215.058594 233.3125 Z M 213.707031 90.511719 L 212.976562 90.171875 L 215.351562 85.042969 L 216.082031 85.382812 C 226.933594 90.410156 236.757812 97.921875 244.488281 107.109375 L 245.011719 107.726562 L 240.6875 111.371094 L 240.167969 110.75 C 232.964844 102.191406 223.8125 95.195312 213.707031 90.511719 Z M 215.113281 89.394531 C 224.902344 94.054688 233.78125 100.84375 240.875 109.097656 L 242.734375 107.535156 C 235.414062 99.011719 226.242188 92 216.132812 87.1875 Z M 109.359375 134.574219 L 104.050781 132.640625 L 104.324219 131.882812 C 110.039062 116.191406 120.277344 102.75 133.941406 93.019531 L 134.597656 92.550781 L 137.878906 97.152344 L 137.222656 97.621094 C 124.5 106.6875 114.960938 119.203125 109.640625 133.816406 Z M 108.40625 132.507812 C 113.792969 118.164062 123.183594 105.835938 135.632812 96.777344 L 134.21875 94.796875 C 121.375 104.140625 111.675781 116.863281 106.117188 131.675781 Z M 210.570312 82.707031 L 209.054688 82.15625 L 206.984375 87.851562 L 208.496094 88.40625 Z M 248.21875 122.460938 L 253.46875 119.425781 L 252.664062 118.027344 L 247.410156 121.0625 Z M 253.722656 134.601562 L 259.417969 132.527344 L 258.867188 131.015625 L 253.167969 133.085938 Z M 257.039062 147.511719 L 263.011719 146.460938 L 262.734375 144.875 L 256.761719 145.925781 Z M 258.0625 160.804688 L 264.125 160.804688 L 264.125 159.191406 L 258.0625 159.191406 Z M 256.761719 174.074219 L 262.734375 175.125 L 263.011719 173.535156 L 257.039062 172.484375 Z M 253.171875 186.914062 L 258.871094 188.988281 L 259.425781 187.472656 L 253.726562 185.398438 Z M 247.410156 198.9375 L 252.664062 201.972656 L 253.46875 200.578125 L 248.21875 197.542969 Z M 219.121094 226.640625 L 222.15625 231.890625 L 223.550781 231.085938 L 220.515625 225.832031 Z M 166.453125 241.15625 L 168.039062 241.433594 L 169.089844 235.460938 L 167.503906 235.183594 Z M 152.585938 237.292969 L 154.101562 237.847656 L 156.175781 232.148438 L 154.660156 231.597656 Z M 139.605469 231.085938 L 141.003906 231.890625 L 144.039062 226.640625 L 142.640625 225.832031 Z M 115.746094 198.9375 L 114.941406 197.542969 L 109.6875 200.578125 L 110.492188 201.972656 Z M 109.4375 185.398438 L 103.738281 187.472656 L 104.289062 188.988281 L 109.988281 186.914062 Z M 106.121094 172.488281 L 100.152344 173.542969 L 100.429688 175.132812 L 106.402344 174.078125 Z M 105.097656 159.191406 L 99.035156 159.191406 L 99.035156 160.804688 L 105.097656 160.804688 Z M 106.402344 145.925781 L 100.429688 144.875 L 100.152344 146.460938 L 106.121094 147.511719 Z M 144.039062 93.363281 L 141.003906 88.109375 L 139.605469 88.914062 L 142.640625 94.167969 Z M 156.179688 87.859375 L 154.105469 82.160156 L 152.59375 82.714844 L 154.664062 88.410156 Z M 203.464844 80.402344 L 201.910156 79.988281 L 200.355469 85.855469 L 201.914062 86.269531 Z M 244.554688 116.589844 L 249.511719 113.09375 L 248.582031 111.777344 L 243.625 115.273438 Z M 251.132812 128.183594 L 256.621094 125.601562 L 255.933594 124.144531 L 250.445312 126.726562 Z M 255.601562 140.746094 L 261.453125 139.15625 L 261.03125 137.597656 L 255.175781 139.1875 Z M 257.820312 153.890625 L 263.859375 153.34375 L 263.714844 151.738281 L 257.675781 152.285156 Z M 257.722656 167.226562 L 263.765625 167.738281 L 263.898438 166.132812 L 257.855469 165.621094 Z M 255.3125 180.335938 L 261.175781 181.886719 L 261.589844 180.332031 L 255.726562 178.777344 Z M 256.839844 193.910156 L 251.335938 191.367188 L 250.660156 192.828125 L 256.164062 195.371094 Z M 173.847656 242.1875 L 175.453125 242.320312 L 175.964844 236.277344 L 174.359375 236.144531 Z M 159.691406 239.597656 L 161.25 240.011719 L 162.800781 234.148438 L 161.242188 233.734375 Z M 146.203125 234.585938 L 147.664062 235.265625 L 150.207031 229.757812 L 148.746094 229.082031 Z M 106.535156 194.394531 L 107.222656 195.851562 L 112.710938 193.265625 L 112.023438 191.8125 Z M 107.554688 179.257812 L 101.703125 180.847656 L 102.125 182.398438 L 107.980469 180.808594 Z M 105.339844 166.109375 L 99.296875 166.65625 L 99.441406 168.261719 L 105.484375 167.714844 Z M 99.253906 153.871094 L 105.296875 154.378906 L 105.429688 152.773438 L 99.386719 152.265625 Z M 107.847656 139.664062 L 101.980469 138.113281 L 101.566406 139.671875 L 107.433594 141.222656 Z M 149.761719 90.445312 L 147.179688 84.957031 L 145.722656 85.644531 L 148.304688 91.132812 Z M 162.324219 85.976562 L 160.734375 80.125 L 159.175781 80.546875 L 160.765625 86.402344 Z M 244.371094 224.132812 L 255.859375 235.617188 L 256.996094 234.480469 L 245.511719 222.992188 Z M 106.160156 234.480469 L 107.296875 235.617188 L 119.359375 223.554688 L 118.222656 222.417969 Z M 182.386719 54.484375 L 180.777344 54.484375 L 180.777344 69.183594 L 182.386719 69.183594 Z M 166.953125 150.023438 L 196.203125 150.023438 L 181.582031 176.3125 Z M 193.464844 151.636719 L 169.695312 151.636719 L 181.582031 173 Z M 268.394531 118.4375 L 269.074219 119.898438 L 273.25 117.941406 L 272.566406 116.480469 Z M 126.460938 81.089844 L 123.9375 77.542969 L 122.621094 78.476562 L 125.144531 82.027344 Z M 102.367188 104.324219 L 98.910156 101.945312 L 97.996094 103.269531 L 101.457031 105.648438 Z M 197.371094 254.910156 L 198.144531 259.371094 L 199.734375 259.097656 L 198.960938 254.632812 Z M 89.832031 202.277344 L 90.519531 203.734375 L 94.808594 201.71875 L 94.121094 200.265625 Z M 276.554688 175.855469 L 276.277344 177.445312 L 280.933594 178.261719 L 281.210938 176.671875 Z M 276.554688 175.855469 " fill-opacity="1" fill-rule="nonzero"/></g><g clip-path="url(#1ef5e1fc2b)"><path fill="#000000" d="M 181.582031 221.5 C 194.664062 221.5 206.804688 217.390625 216.785156 210.398438 L 217.9375 211.554688 C 207.65625 218.832031 195.105469 223.109375 181.574219 223.109375 C 168.046875 223.109375 155.496094 218.832031 145.214844 211.554688 L 146.367188 210.398438 C 156.355469 217.386719 168.492188 221.5 181.582031 221.5 Z M 131.1875 195.207031 C 124.195312 185.226562 120.078125 173.085938 120.078125 160.003906 C 120.078125 129.757812 142.027344 104.542969 170.835938 99.445312 L 170.835938 97.8125 C 141.136719 102.925781 118.46875 128.867188 118.46875 160.003906 C 118.46875 173.53125 122.75 186.082031 130.027344 196.367188 Z M 192.320312 97.808594 L 192.320312 99.441406 C 221.128906 104.539062 243.078125 129.753906 243.078125 159.996094 C 243.078125 173.082031 238.96875 185.222656 231.972656 195.199219 L 233.125 196.355469 C 240.402344 186.070312 244.683594 173.519531 244.683594 159.992188 C 244.6875 128.859375 222.019531 102.921875 192.320312 97.808594 Z M 86.105469 159.90625 C 86.105469 180.894531 92.789062 200.808594 105.425781 217.492188 L 105.914062 218.136719 L 101.015625 221.847656 L 100.527344 221.203125 C 87.074219 203.4375 79.964844 182.242188 79.964844 159.90625 C 79.964844 135.25 88.90625 111.472656 105.140625 92.949219 C 121.222656 74.605469 143.324219 62.644531 167.359375 59.277344 L 168.160156 59.164062 L 169.015625 65.242188 L 168.214844 65.355469 C 121.40625 71.914062 86.105469 112.5625 86.105469 159.90625 Z M 167.195312 63.878906 L 166.792969 60.988281 C 143.441406 64.449219 122.003906 76.15625 106.351562 94.011719 C 90.375 112.238281 81.574219 135.636719 81.574219 159.90625 C 81.574219 181.617188 88.398438 202.234375 101.328125 219.582031 L 103.652344 217.820312 C 91.117188 200.984375 84.496094 180.980469 84.496094 159.90625 C 84.496094 112.03125 119.988281 70.894531 167.195312 63.878906 Z M 239.796875 235.585938 L 243.5 240.484375 L 242.855469 240.972656 C 225.097656 254.417969 203.90625 261.523438 181.570312 261.523438 C 159.417969 261.523438 138.359375 254.523438 120.6875 241.273438 L 120.042969 240.789062 L 123.726562 235.875 L 124.371094 236.359375 C 140.976562 248.808594 160.761719 255.386719 181.574219 255.386719 C 202.558594 255.386719 222.472656 248.710938 239.152344 236.074219 Z M 241.246094 240.167969 L 239.484375 237.839844 C 222.652344 250.375 202.648438 256.992188 181.574219 256.992188 C 160.679688 256.992188 140.808594 250.472656 124.054688 238.125 L 122.304688 240.460938 C 139.570312 253.191406 160.039062 259.914062 181.574219 259.914062 C 203.289062 259.910156 223.90625 253.089844 241.246094 240.167969 Z M 283.195312 159.90625 C 283.195312 182.109375 276.164062 203.203125 262.855469 220.902344 L 262.375 221.546875 L 257.464844 217.859375 L 257.949219 217.214844 C 270.449219 200.582031 277.054688 180.765625 277.054688 159.90625 C 277.054688 112.5625 241.757812 71.914062 194.949219 65.359375 L 194.148438 65.25 L 195 59.167969 L 195.800781 59.28125 C 219.839844 62.648438 241.9375 74.609375 258.023438 92.953125 C 274.253906 111.472656 283.195312 135.246094 283.195312 159.90625 Z M 281.582031 159.90625 C 281.582031 135.636719 272.78125 112.238281 256.804688 94.011719 C 241.15625 76.160156 219.714844 64.453125 196.367188 60.988281 L 195.964844 63.878906 C 243.167969 70.894531 278.667969 112.03125 278.667969 159.90625 C 278.667969 180.851562 272.121094 200.757812 259.71875 217.53125 L 262.050781 219.285156 C 274.832031 202 281.582031 181.488281 281.582031 159.90625 Z M 149.890625 140.113281 L 213.261719 140.113281 L 181.574219 197.0625 Z M 210.527344 141.722656 L 152.636719 141.722656 L 181.582031 193.75 Z M 210.527344 141.722656 " fill-opacity="1" fill-rule="nonzero"/></g></svg>