<svg width="414" height="406" viewBox="0 0 414 406" fill="none" xmlns="http://www.w3.org/2000/svg">
<mask id="mask0_70_222" style="mask-type:luminance" maskUnits="userSpaceOnUse" x="98" y="58" width="214" height="224">
<path d="M98.256 58.8108H311.328V281.493H98.256V58.8108Z" fill="white"/>
</mask>
<g mask="url(#mask0_70_222)">
<path d="M195.455 203.495L196.499 205.394C189.28 204.548 182.768 201.406 177.748 196.737L139.889 233.86C142.623 236.491 145.53 238.944 148.596 241.198L147.526 242.593C140.894 237.721 134.994 231.961 129.987 225.482L131.406 224.429C133.636 227.313 136.055 230.05 138.63 232.63L176.485 195.506C170.861 189.691 167.407 181.854 167.407 173.231C167.407 168.05 168.662 163.153 170.874 158.805L171.918 160.708C170.163 164.531 169.179 168.769 169.179 173.222C169.197 188.464 180.586 201.139 195.455 203.495ZM200.467 142.561C209.449 142.561 217.553 146.3 223.262 152.263L225.621 152.242C219.735 145.466 211.067 141.089 201.355 140.831V88.36C205.12 88.3938 208.885 88.656 212.58 89.1677L212.826 87.438C204.693 86.3215 196.24 86.3215 188.103 87.438L188.353 89.1677C192.049 88.6602 195.813 88.398 199.578 88.36V140.844C189.659 141.106 180.819 145.669 174.924 152.698L177.278 152.677C183.005 146.469 191.277 142.561 200.467 142.561ZM269.704 224.18C267.422 227.157 264.943 229.974 262.291 232.63L224.435 195.506C230.059 189.691 233.513 181.854 233.513 173.231C233.513 167.923 232.198 162.912 229.878 158.484L228.834 160.362C230.693 164.278 231.728 168.638 231.728 173.231C231.728 188.667 220.032 201.477 204.87 203.588L203.826 205.47C211.287 204.725 218.014 201.532 223.172 196.737L261.031 233.86C258.396 236.389 255.61 238.762 252.665 240.948L253.739 242.34C260.311 237.455 266.163 231.699 271.123 225.229L269.704 224.18ZM237.14 247.905L239.792 253.445L238.986 253.818C226.889 259.387 213.926 262.213 200.458 262.213H199.57V256.089H200.458C213.007 256.089 225.069 253.462 236.334 248.277L237.14 247.905ZM237.425 252.6L236.286 250.219C225.289 255.15 213.546 257.708 201.355 257.827V260.462C213.943 260.348 226.066 257.7 237.425 252.6ZM235.933 97.994L235.126 97.6261L237.748 92.0732L238.555 92.4411C250.535 97.8841 261.381 106.017 269.915 115.964L270.493 116.632L265.719 120.578L265.145 119.905C257.193 110.639 247.089 103.065 235.933 97.994ZM237.485 96.7845C248.292 101.83 258.094 109.18 265.926 118.116L267.979 116.425C259.897 107.197 249.771 99.6053 238.611 94.395L237.485 96.7845ZM120.733 145.699L114.872 143.606L115.174 142.785C121.483 125.797 132.786 111.244 147.871 100.709L148.596 100.202L152.218 105.184L151.494 105.691C137.448 115.507 126.917 129.057 121.043 144.879L120.733 145.699ZM119.68 143.462C125.627 127.932 135.995 114.585 149.739 104.778L148.177 102.633C133.998 112.75 123.29 126.524 117.153 142.561L119.68 143.462ZM232.47 89.5441L230.796 88.9478L228.511 95.1139L230.18 95.7145L232.47 89.5441ZM274.033 132.584L279.829 129.298L278.941 127.784L273.141 131.07L274.033 132.584ZM280.11 145.729L286.397 143.483L285.789 141.846L279.497 144.088L280.11 145.729ZM283.771 159.706L290.365 158.568L290.059 156.851L283.465 157.989L283.771 159.706ZM284.901 174.098H291.594V172.351H284.901V174.098ZM283.465 188.464L290.059 189.602L290.365 187.881L283.771 186.743L283.465 188.464ZM279.502 202.366L285.794 204.611L286.406 202.97L280.114 200.725L279.502 202.366ZM273.141 215.383L278.941 218.669L279.829 217.159L274.033 213.873L273.141 215.383ZM241.91 245.376L245.26 251.06L246.8 250.189L243.449 244.501L241.91 245.376ZM183.764 261.092L185.515 261.392L186.675 254.926L184.924 254.625L183.764 261.092ZM168.455 256.909L170.128 257.51L172.418 251.339L170.745 250.743L168.455 256.909ZM154.124 250.189L155.668 251.06L159.019 245.376L157.475 244.501L154.124 250.189ZM127.784 215.383L126.895 213.873L121.095 217.159L121.983 218.669L127.784 215.383ZM120.819 200.725L114.527 202.97L115.135 204.611L121.427 202.366L120.819 200.725ZM117.158 186.747L110.568 187.889L110.874 189.61L117.468 188.469L117.158 186.747ZM116.028 172.351H109.335V174.098H116.028V172.351ZM117.468 157.989L110.874 156.851L110.568 158.568L117.158 159.706L117.468 157.989ZM159.019 101.081L155.668 95.3931L154.124 96.2643L157.475 101.953L159.019 101.081ZM172.422 95.1224L170.132 88.9521L168.463 89.5526L170.749 95.7187L172.422 95.1224ZM224.625 87.0489L222.909 86.6006L221.192 92.9528L222.913 93.4011L224.625 87.0489ZM269.988 126.228L275.461 122.443L274.435 121.018L268.962 124.803L269.988 126.228ZM277.251 138.78L283.31 135.985L282.551 134.407L276.492 137.203L277.251 138.78ZM282.184 152.381L288.644 150.66L288.178 148.972L281.714 150.694L282.184 152.381ZM284.634 166.612L291.301 166.02L291.141 164.282L284.474 164.874L284.634 166.612ZM284.526 181.051L291.197 181.605L291.344 179.866L284.672 179.312L284.526 181.051ZM281.865 195.244L288.338 196.923L288.795 195.239L282.322 193.556L281.865 195.244ZM283.551 209.94L277.475 207.187L276.729 208.769L282.805 211.522L283.551 209.94ZM191.928 262.208L193.7 262.352L194.265 255.81L192.493 255.666L191.928 262.208ZM176.299 259.404L178.02 259.853L179.732 253.505L178.011 253.056L176.299 259.404ZM161.408 253.978L163.021 254.714L165.829 248.751L164.216 248.019L161.408 253.978ZM117.615 210.464L118.374 212.042L124.433 209.242L123.674 207.669L117.615 210.464ZM118.74 194.076L112.28 195.798L112.746 197.477L119.21 195.755L118.74 194.076ZM116.295 179.841L109.624 180.433L109.783 182.171L116.455 181.579L116.295 179.841ZM109.576 166.591L116.248 167.141L116.394 165.403L109.723 164.853L109.576 166.591ZM119.064 151.21L112.586 149.531L112.129 151.218L118.607 152.897L119.064 151.21ZM165.337 97.9221L162.486 91.9801L160.878 92.7245L163.728 98.6664L165.337 97.9221ZM179.206 93.0839L177.451 86.7487L175.73 87.2054L177.485 93.5449L179.206 93.0839ZM269.786 242.661L282.469 255.095L283.724 253.864L271.045 241.426L269.786 242.661ZM117.201 253.864L118.456 255.095L131.773 242.035L130.518 240.805L117.201 253.864ZM201.355 58.9884H199.578V74.9028H201.355V58.9884ZM184.316 162.425H216.608L200.467 190.888L184.316 162.425ZM213.585 164.172H187.344L200.467 187.301L213.585 164.172ZM296.308 128.228L297.058 129.81L301.668 127.691L300.913 126.11L296.308 128.228ZM139.613 87.7933L136.827 83.9532L135.374 84.9639L138.16 88.8083L139.613 87.7933ZM113.013 112.948L109.197 110.373L108.188 111.806L112.009 114.382L113.013 112.948ZM217.898 275.983L218.752 280.812L220.507 280.516L219.653 275.682L217.898 275.983ZM99.1746 218.999L99.9336 220.576L104.669 218.394L103.91 216.821L99.1746 218.999ZM305.316 190.393L305.01 192.114L310.151 192.998L310.457 191.277L305.316 190.393Z" fill="#696565"/>
</g>
<mask id="mask1_70_222" style="mask-type:luminance" maskUnits="userSpaceOnUse" x="88" y="63" width="225" height="220">
<path d="M88.2812 63.8773H312.669V282.923H88.2812V63.8773Z" fill="white"/>
</mask>
<g mask="url(#mask1_70_222)">
<path d="M200.467 239.811C214.909 239.811 228.312 235.362 239.331 227.791L240.603 229.043C229.253 236.922 215.396 241.553 200.458 241.553C185.524 241.553 171.668 236.922 160.317 229.043L161.589 227.791C172.616 235.357 186.015 239.811 200.467 239.811ZM144.831 211.344C137.112 200.539 132.566 187.394 132.566 173.231C132.566 140.484 156.798 113.185 188.603 107.666V105.898C155.815 111.434 130.79 139.52 130.79 173.231C130.79 187.876 135.516 201.465 143.55 212.6L144.831 211.344ZM212.322 105.894V107.662C244.126 113.181 268.358 140.48 268.358 173.222C268.358 187.39 263.822 200.534 256.098 211.336L257.37 212.587C265.404 201.452 270.131 187.864 270.131 173.218C270.135 139.512 245.11 111.43 212.322 105.894ZM95.0604 173.125C95.0604 195.848 102.439 217.409 116.39 235.472L116.929 236.169L111.521 240.187L110.982 239.489C96.1299 220.255 88.2812 197.308 88.2812 173.125C88.2812 146.431 98.1525 120.688 116.075 100.633C133.83 80.7728 158.23 67.8231 184.765 64.1776L185.649 64.0549L186.593 70.6355L185.709 70.7582C134.033 77.8589 95.0604 121.868 95.0604 173.125ZM184.584 69.1595L184.139 66.03C158.359 69.777 134.692 82.4518 117.412 101.783C99.774 121.517 90.0579 146.849 90.0579 173.125C90.0579 196.631 97.5919 218.952 111.866 237.734L114.432 235.827C100.593 217.599 93.2837 195.941 93.2837 173.125C93.2837 121.292 132.467 76.7551 184.584 69.1595ZM264.736 255.061L268.824 260.364L268.112 260.893C248.508 275.45 225.113 283.143 200.454 283.143C175.997 283.143 152.749 275.564 133.239 261.219L132.527 260.694L136.594 255.374L137.306 255.898C155.638 269.377 177.481 276.499 200.458 276.499C223.625 276.499 245.61 269.271 264.024 255.59L264.736 255.061ZM266.336 260.022L264.391 257.501C245.808 271.073 223.724 278.237 200.458 278.237C177.39 278.237 155.453 271.178 136.956 257.81L135.024 260.339C154.086 274.122 176.683 281.4 200.458 281.4C224.431 281.396 247.193 274.012 266.336 260.022ZM312.648 173.125C312.648 197.164 304.885 220.001 290.192 239.164L289.662 239.861L284.241 235.869L284.776 235.171C298.576 217.163 305.868 195.709 305.868 173.125C305.868 121.868 266.901 77.8589 215.224 70.7624L214.34 70.644L215.28 64.0592L216.164 64.1818C242.703 67.8273 267.099 80.7771 284.858 100.637C302.776 120.688 312.648 146.426 312.648 173.125ZM310.867 173.125C310.867 146.849 301.151 121.517 283.512 101.783C266.237 82.456 242.565 69.7812 216.789 66.03L216.345 69.1595C268.457 76.7551 307.649 121.292 307.649 173.125C307.649 195.802 300.422 217.354 286.73 235.514L289.304 237.413C303.415 218.699 310.867 196.491 310.867 173.125ZM165.479 151.696H235.441L200.458 213.353L165.479 151.696ZM232.422 153.438H168.511L200.467 209.767L232.422 153.438Z" fill="#696565"/>
</g>
</svg>
