<svg width="384" height="302" viewBox="0 0 384 302" fill="none" xmlns="http://www.w3.org/2000/svg">
<g clip-path="url(#clip0_97_148)">
<path d="M334.689 32.7429L181.645 296.854L28.7465 32.656L334.689 32.7429Z" stroke="white" stroke-width="5"/>
<rect x="13" y="93" width="350" height="93" fill="#333333"/>
<path d="M33.2897 157.974H55.2522V160.933H29.6667V115.332H32.623V157.308V157.974H33.2897Z" fill="white" stroke="white" stroke-width="1.33333"/>
<path d="M67.3195 157.974H90.9743V160.933H63.6965V115.332H90.1085V118.291H67.3195H66.6528V118.957V135.667V136.334H67.3195H87.5504V139.201H67.3195H66.6528V139.867V157.308V157.974H67.3195Z" fill="white" stroke="white" stroke-width="1.33333"/>
<path d="M116.001 155.674L131.46 115.332H134.363L116.965 160.933H113.633L96.2355 115.332H99.4514L114.755 155.672L115.375 157.307L116.001 155.674Z" fill="white" stroke="white" stroke-width="1.33333"/>
<path d="M146.3 157.974H169.955V160.933H142.677V115.332H169.089V118.291H146.3H145.633V118.957V135.667V136.334H146.3H166.531V139.201H146.3H145.633V139.867V157.308V157.974H146.3Z" fill="white" stroke="white" stroke-width="1.33333"/>
<path d="M184.953 157.974H206.915V160.933H181.33V115.332H184.286V157.308V157.974H184.953Z" fill="white" stroke="white" stroke-width="1.33333"/>
<path d="M222.667 136.667H232.697V138.486H222.667V136.667Z" fill="black" stroke="white" stroke-width="1.33333"/>
<path d="M248.366 150.87V108.667H254.857V150.87V151.537H255.524H278.965H279.631V150.87V108.667H286.123V150.87C286.123 152.774 285.78 154.487 285.112 156.04L285.111 156.042C284.457 157.576 283.578 158.773 282.476 159.665C281.407 160.521 280.246 160.933 278.965 160.933H255.524C254.235 160.933 253.065 160.522 251.98 159.665C250.894 158.773 250.015 157.576 249.344 156.041C248.693 154.489 248.366 152.777 248.366 150.87Z" fill="white" stroke="white" stroke-width="1.33333"/>
<path d="M342.015 110.009L342.015 110.009L342.025 110.015C343.338 110.893 344.375 112.091 345.144 113.638L345.144 113.638L345.148 113.647C345.933 115.169 346.334 116.844 346.334 118.683V129.412C346.334 131.3 345.933 132.999 345.147 134.543L345.146 134.545C344.377 136.071 343.338 137.272 342.02 138.175C340.736 139.046 339.322 139.475 337.752 139.475H310.046H309.379V140.141V160.933H301.464V108.667H337.752C339.316 108.667 340.728 109.115 342.015 110.009ZM309.379 129.412V130.079H310.046H337.752H338.418V129.412V118.683V118.017H337.752H310.046H309.379V118.683V129.412Z" fill="white" stroke="white" stroke-width="1.33333"/>
</g>
<defs>
<clipPath id="clip0_97_148">
<rect width="384" height="302" fill="white"/>
</clipPath>
</defs>
</svg>
