<svg width="430" height="422" viewBox="0 0 430 422" fill="none" xmlns="http://www.w3.org/2000/svg">
<mask id="mask0_70_233" style="mask-type:luminance" maskUnits="userSpaceOnUse" x="139" y="142" width="171" height="135">
<path d="M139.118 142.917H309.398V276.832H139.118V142.917Z" fill="white"/>
</mask>
<g mask="url(#mask0_70_233)">
<path d="M309.604 214.468V212.767H275.334L290.702 181.047C291.531 179.324 291.41 177.332 290.375 175.723C289.336 174.115 287.562 173.152 285.623 173.152H239.864L250.502 151.195C251.335 149.476 251.214 147.485 250.179 145.876C249.14 144.267 247.362 143.304 245.422 143.304H169.133C166.974 143.304 164.981 144.539 164.054 146.456L161.017 152.724H139.212V154.426H160.188L148.744 178.049C147.911 179.772 148.032 181.759 149.067 183.368C150.101 184.977 151.884 185.939 153.824 185.939H166.853L148.744 223.322C147.911 225.045 148.032 227.032 149.067 228.64C150.106 230.249 151.884 231.212 153.824 231.212H166.853L148.744 268.594C147.911 270.317 148.032 272.304 149.067 273.913C150.106 275.522 151.884 276.485 153.824 276.485H262.842C265.001 276.485 266.999 275.249 267.921 273.337L290.702 226.319C291.531 224.596 291.41 222.609 290.375 221.001C289.336 219.392 287.562 218.429 285.623 218.429H272.593L274.51 214.468H309.604ZM153.824 184.247C152.48 184.247 151.248 183.583 150.531 182.467C149.819 181.35 149.73 179.974 150.307 178.783L162.106 154.43H170.867V152.733H162.934L165.617 147.19C166.258 145.867 167.637 145.01 169.133 145.01H245.422C246.766 145.01 247.998 145.674 248.715 146.79C249.427 147.907 249.516 149.283 248.939 150.474L237.947 173.161H176.6C174.441 173.161 172.452 174.396 171.521 176.308L167.678 184.247H153.824ZM237.127 174.853L233.638 182.058C232.997 183.385 231.618 184.238 230.122 184.238H169.595L173.084 177.033C173.724 175.71 175.104 174.853 176.6 174.853H237.127ZM285.623 220.126C286.967 220.126 288.194 220.79 288.911 221.906C289.627 223.023 289.712 224.398 289.135 225.585L266.358 272.608C265.718 273.931 264.338 274.788 262.842 274.788H153.824C152.48 274.788 151.248 274.124 150.531 273.008C149.819 271.891 149.73 270.515 150.307 269.324L168.766 231.212H262.842C265.001 231.212 266.999 229.977 267.921 228.065L271.769 220.126H285.623ZM169.595 229.515L173.084 222.306C173.724 220.983 175.104 220.126 176.6 220.126H269.852L266.358 227.331C265.718 228.658 264.338 229.515 262.842 229.515H169.595ZM272.593 214.468L270.676 218.429H176.6C174.441 218.429 172.452 219.664 171.521 221.576L167.678 229.515H153.824C152.48 229.515 151.248 228.851 150.531 227.735C149.819 226.618 149.73 225.243 150.307 224.051L168.766 185.939H230.122C232.281 185.939 234.269 184.704 235.201 182.788L239.044 174.853H285.623C286.967 174.853 288.194 175.517 288.911 176.633C289.627 177.75 289.712 179.126 289.135 180.313L273.417 212.767H194.7V214.468H272.593Z" fill="black" fill-opacity="0.2"/>
</g>
<mask id="mask1_70_233" style="mask-type:luminance" maskUnits="userSpaceOnUse" x="123" y="103" width="118" height="214">
<path d="M123 103H240.173V316.678H123V103Z" fill="white"/>
</mask>
<g mask="url(#mask1_70_233)">
<path d="M232.498 295.308H152.395V257.084L156.269 254.714V248.984L151.577 246.116L146.89 248.984V254.714L150.755 257.084V295.308H138.918C137.075 295.308 135.578 296.893 135.578 298.84V301.281C135.578 301.941 135.752 302.551 136.049 303.081H127.48C125.344 303.081 123.606 304.921 123.606 307.178V312.527C123.606 314.789 125.344 316.629 127.48 316.629H185.939C187.52 316.629 188.927 315.628 189.525 314.084L191.597 308.735C192.089 307.47 191.953 306.029 191.232 304.894C191.215 304.867 191.19 304.844 191.173 304.813H232.502C234.346 304.813 235.842 303.229 235.842 301.281V298.84C235.838 296.893 234.338 295.308 232.498 295.308ZM148.521 253.718V249.984L151.569 248.122L154.624 249.984V253.718L151.569 255.576L148.521 253.718ZM190.08 308.08L188.003 313.429C187.66 314.322 186.846 314.901 185.935 314.901H127.48C126.246 314.901 125.246 313.837 125.246 312.536V307.187C125.246 305.877 126.251 304.822 127.48 304.822H188.012C188.77 304.822 189.444 305.203 189.868 305.868C190.287 306.532 190.364 307.339 190.08 308.08ZM234.198 301.286C234.198 302.278 233.435 303.085 232.498 303.085H138.918C137.981 303.085 137.219 302.282 137.219 301.286V298.845C137.219 297.857 137.981 297.05 138.918 297.05H232.498C233.435 297.05 234.198 297.857 234.198 298.845V301.286ZM236.24 108.349H223.399C223.929 107.277 223.865 106.002 223.221 105.001L222.844 104.418C222.276 103.53 221.327 103 220.31 103H194.911C193.22 103 191.843 104.458 191.843 106.249V106.832C191.843 108.627 193.22 110.081 194.911 110.081H198.997C198.776 110.535 198.645 111.051 198.645 111.598V114.605C198.645 116.4 200.018 117.854 201.713 117.854H218.157V167.127L214.283 169.492V175.222L218.975 178.09L223.662 175.222V169.492L219.797 167.127V117.854H236.24C237.931 117.854 239.309 116.4 239.309 114.605V111.598C239.309 109.808 237.931 108.349 236.24 108.349ZM194.92 108.349C194.131 108.349 193.487 107.672 193.487 106.832V106.249C193.487 105.419 194.127 104.732 194.92 104.732H220.314C220.789 104.732 221.225 104.983 221.492 105.392L221.869 105.98C222.179 106.451 222.204 107.034 221.954 107.537C221.7 108.044 221.225 108.349 220.687 108.349H194.92ZM222.03 170.492V174.222L218.983 176.093L215.928 174.222V170.492L218.983 168.63L222.03 170.492ZM237.673 114.605C237.673 115.439 237.024 116.122 236.24 116.122H201.717C200.933 116.122 200.289 115.439 200.289 114.605V111.598C200.289 110.768 200.925 110.081 201.717 110.081H236.24C237.024 110.081 237.673 110.768 237.673 111.598V114.605Z" fill="black" fill-opacity="0.2"/>
</g>
</svg>
